<svg width="311" height="389" viewBox="0 0 311 389" fill="none" xmlns="http://www.w3.org/2000/svg">
<mask id="mask0_1515_11551" style="mask-type:alpha" maskUnits="userSpaceOnUse" x="0" y="0" width="311" height="311">
<rect x="139.192" y="7.40388" width="232.502" height="186.367" transform="rotate(45 139.192 7.40388)" fill="#C4C4C4" stroke="#549FE4" stroke-width="10.4706"/>
</mask>
<g mask="url(#mask0_1515_11551)">
<path d="M366.159 109.143L219.336 44.395C190.28 31.5816 160.555 60.9858 173.053 90.1787L201.693 157.076C214.191 186.269 184.466 215.673 155.411 202.86L91.1103 174.504C61.885 161.616 32.0908 191.41 44.9789 220.635L109.151 366.152" stroke="white" stroke-width="10.4706"/>
</g>
<rect x="76.0261" y="179.92" width="147.645" height="77.8039" rx="38.9019" transform="rotate(-45 76.0261 179.92)" fill="white" stroke="#333333" stroke-width="8.37649"/>
<line y1="-4.18825" x2="81.8714" y2="-4.18825" transform="matrix(-0.707107 -0.707107 0.717278 -0.696787 184.305 184.272)" stroke="#333333" stroke-width="8.37649"/>
<mask id="mask1_1515_11551" style="mask-type:alpha" maskUnits="userSpaceOnUse" x="0" y="69" width="242" height="242">
<rect x="69.5962" y="69.5962" width="242.918" height="98.4238" transform="rotate(45 69.5962 69.5962)" fill="#C4C4C4"/>
</mask>
<g mask="url(#mask1_1515_11551)">
<path d="M125.477 148.039L111.36 163.039C105.36 169.414 103.177 178.486 105.621 186.892V186.892" stroke="#333333" stroke-width="8.37649" stroke-linecap="round"/>
<circle cx="105.587" cy="186.776" r="4.18825" fill="#333333"/>
</g>
<mask id="mask2_1515_11551" style="mask-type:alpha" maskUnits="userSpaceOnUse" x="0" y="0" width="311" height="311">
<rect x="139.192" y="7.40388" width="232.502" height="186.367" transform="rotate(45 139.192 7.40388)" fill="#C4C4C4" stroke="#549FE4" stroke-width="10.4706"/>
</mask>
<g mask="url(#mask2_1515_11551)">
<path d="M201.857 -55.6298L266.605 91.194C279.419 120.25 250.014 149.974 220.821 137.476L153.924 108.837C124.731 96.3387 95.3271 126.063 108.14 155.119L136.496 219.419C149.384 248.645 119.59 278.439 90.365 265.551L-55.1517 201.379" stroke="white" stroke-width="10.4706"/>
</g>
<mask id="mask3_1515_11551" style="mask-type:alpha" maskUnits="userSpaceOnUse" x="69" y="0" width="242" height="242">
<rect x="139.192" y="1.52588e-05" width="242.918" height="98.4238" transform="rotate(45 139.192 1.52588e-05)" fill="#C4C4C4"/>
</mask>
<g mask="url(#mask3_1515_11551)">
<mask id="mask4_1515_11551" style="mask-type:alpha" maskUnits="userSpaceOnUse" x="0" y="0" width="311" height="311">
<rect x="139.192" y="7.40386" width="232.502" height="186.367" transform="rotate(45 139.192 7.40386)" fill="#C4C4C4" stroke="#549FE4" stroke-width="10.4706"/>
</mask>
<g mask="url(#mask4_1515_11551)">
<path d="M201.857 -55.6298L266.605 91.194C279.419 120.25 250.014 149.974 220.821 137.476L153.924 108.837C124.731 96.3387 95.3271 126.063 108.14 155.119L136.496 219.419C149.384 248.645 119.59 278.439 90.365 265.551L-55.1517 201.379" stroke="white" stroke-width="10.4706"/>
</g>
<rect x="76.0261" y="179.92" width="147.645" height="77.8039" rx="38.9019" transform="rotate(-45 76.0261 179.92)" fill="white" stroke="#333333" stroke-width="8.37649"/>
<line y1="-4.18825" x2="81.8714" y2="-4.18825" transform="matrix(-0.707107 -0.707107 0.717278 -0.696787 184.304 184.272)" stroke="#333333" stroke-width="8.37649"/>
<mask id="mask5_1515_11551" style="mask-type:alpha" maskUnits="userSpaceOnUse" x="0" y="0" width="311" height="311">
<rect x="139.192" y="7.40386" width="232.502" height="186.367" transform="rotate(45 139.192 7.40386)" fill="#C4C4C4" stroke="#549FE4" stroke-width="10.4706"/>
</mask>
<g mask="url(#mask5_1515_11551)">
<path d="M366.159 109.143L219.336 44.3949C190.28 31.5815 160.555 60.9858 173.053 90.1787L201.693 157.076C214.191 186.269 184.466 215.673 155.411 202.86L91.1103 174.504C61.885 161.616 32.0908 191.41 44.9789 220.635L109.151 366.152" stroke="white" stroke-width="10.4706"/>
</g>
</g>
<path d="M60.5482 375V335.357H74.6787C77.7629 335.357 80.318 335.918 82.344 337.041C84.37 338.164 85.8863 339.699 86.8928 341.648C87.8994 343.584 88.4027 345.765 88.4027 348.191C88.4027 350.63 87.8929 352.823 86.8735 354.772C85.8669 356.708 84.3442 358.243 82.3053 359.379C80.2793 360.502 77.7306 361.063 74.6593 361.063H64.9422V355.991H74.1173C76.0659 355.991 77.6467 355.656 78.8598 354.985C80.0728 354.301 80.9632 353.372 81.531 352.198C82.0988 351.023 82.3827 349.688 82.3827 348.191C82.3827 346.694 82.0988 345.365 81.531 344.203C80.9632 343.042 80.0663 342.132 78.8404 341.474C77.6274 340.816 76.0272 340.487 74.0399 340.487H66.5295V375H60.5482ZM99.7567 357.346V375H93.969V335.357H99.6792V350.107H100.047C100.744 348.507 101.808 347.236 103.241 346.294C104.673 345.352 106.544 344.881 108.854 344.881C110.893 344.881 112.674 345.3 114.197 346.139C115.733 346.978 116.92 348.229 117.759 349.894C118.61 351.546 119.036 353.611 119.036 356.088V375H113.248V356.785C113.248 354.604 112.687 352.914 111.564 351.714C110.442 350.501 108.88 349.894 106.88 349.894C105.512 349.894 104.286 350.184 103.202 350.765C102.131 351.346 101.286 352.198 100.666 353.32C100.06 354.43 99.7567 355.772 99.7567 357.346ZM134.431 375.658C132.547 375.658 130.843 375.31 129.321 374.613C127.798 373.903 126.591 372.877 125.701 371.535C124.823 370.193 124.385 368.548 124.385 366.599C124.385 364.921 124.707 363.541 125.352 362.457C125.998 361.373 126.869 360.515 127.966 359.882C129.062 359.25 130.288 358.772 131.643 358.45C132.998 358.127 134.379 357.882 135.786 357.714C137.567 357.508 139.012 357.34 140.122 357.211C141.231 357.069 142.038 356.843 142.541 356.533C143.045 356.224 143.296 355.72 143.296 355.024V354.888C143.296 353.198 142.819 351.888 141.864 350.959C140.922 350.03 139.515 349.565 137.644 349.565C135.695 349.565 134.16 349.997 133.037 350.862C131.927 351.714 131.159 352.662 130.734 353.707L125.294 352.469C125.94 350.662 126.882 349.204 128.12 348.094C129.372 346.971 130.811 346.158 132.437 345.655C134.063 345.139 135.773 344.881 137.567 344.881C138.754 344.881 140.012 345.023 141.341 345.307C142.683 345.578 143.935 346.081 145.096 346.816C146.271 347.552 147.232 348.604 147.981 349.972C148.729 351.326 149.103 353.088 149.103 355.256V375H143.451V370.935H143.219C142.845 371.683 142.283 372.419 141.535 373.142C140.786 373.864 139.825 374.464 138.651 374.942C137.476 375.419 136.07 375.658 134.431 375.658ZM135.689 371.012C137.289 371.012 138.657 370.696 139.793 370.064C140.941 369.432 141.812 368.606 142.406 367.586C143.012 366.554 143.316 365.451 143.316 364.276V360.444C143.109 360.65 142.709 360.844 142.115 361.024C141.535 361.192 140.87 361.34 140.122 361.469C139.373 361.586 138.644 361.695 137.934 361.799C137.225 361.889 136.631 361.966 136.154 362.031C135.031 362.173 134.005 362.412 133.076 362.747C132.16 363.083 131.424 363.566 130.869 364.199C130.327 364.818 130.056 365.644 130.056 366.676C130.056 368.109 130.585 369.193 131.643 369.928C132.702 370.651 134.05 371.012 135.689 371.012ZM155.831 375V345.268H161.425V349.991H161.735C162.277 348.391 163.232 347.133 164.6 346.216C165.98 345.287 167.542 344.823 169.284 344.823C169.645 344.823 170.071 344.836 170.562 344.861C171.065 344.887 171.458 344.919 171.742 344.958V350.494C171.51 350.43 171.097 350.359 170.503 350.281C169.91 350.191 169.316 350.146 168.723 350.146C167.355 350.146 166.135 350.436 165.064 351.017C164.006 351.585 163.167 352.378 162.548 353.398C161.928 354.404 161.619 355.553 161.619 356.843V375H155.831Z" fill="#444648"/>
<path d="M179.232 335.357H186.491L199.112 366.173H199.576L212.197 335.357H219.456V375H213.765V346.313H213.397L201.706 374.942H196.982L185.291 346.294H184.923V375H179.232V335.357ZM239.52 375.6C236.591 375.6 234.068 374.974 231.952 373.722C229.848 372.458 228.222 370.683 227.074 368.399C225.938 366.102 225.37 363.412 225.37 360.327C225.37 357.282 225.938 354.598 227.074 352.275C228.222 349.952 229.823 348.139 231.874 346.836C233.939 345.532 236.352 344.881 239.114 344.881C240.791 344.881 242.417 345.158 243.992 345.713C245.566 346.268 246.979 347.139 248.231 348.326C249.483 349.513 250.47 351.056 251.193 352.952C251.915 354.837 252.276 357.127 252.276 359.824V361.876H228.642V357.54H246.605C246.605 356.017 246.295 354.669 245.676 353.494C245.056 352.307 244.185 351.372 243.063 350.688C241.953 350.004 240.649 349.662 239.153 349.662C237.527 349.662 236.107 350.062 234.894 350.862C233.694 351.649 232.765 352.681 232.107 353.959C231.461 355.224 231.139 356.598 231.139 358.082V361.469C231.139 363.457 231.487 365.147 232.184 366.541C232.894 367.935 233.881 368.999 235.146 369.735C236.41 370.458 237.888 370.819 239.578 370.819C240.675 370.819 241.675 370.664 242.579 370.354C243.482 370.032 244.263 369.554 244.921 368.922C245.579 368.29 246.082 367.509 246.431 366.58L251.909 367.567C251.47 369.18 250.683 370.593 249.547 371.806C248.424 373.006 247.011 373.942 245.308 374.613C243.618 375.271 241.688 375.6 239.52 375.6Z" fill="white"/>
</svg>
