<svg width="311" height="378" viewBox="0 0 311 378" fill="none" xmlns="http://www.w3.org/2000/svg">
<mask id="mask0_402_4818" style="mask-type:alpha" maskUnits="userSpaceOnUse" x="0" y="0" width="311" height="311">
<rect x="139.192" y="7.40384" width="232.502" height="186.367" transform="rotate(45 139.192 7.40384)" fill="#C4C4C4" stroke="#549FE4" stroke-width="10.4706"/>
</mask>
<g mask="url(#mask0_402_4818)">
<path d="M366.159 109.143L219.335 44.3949C190.28 31.5816 160.555 60.9858 173.053 90.1787L201.693 157.076C214.191 186.269 184.466 215.673 155.41 202.86L91.11 174.504C61.8847 161.616 32.0906 191.41 44.9787 220.635L109.15 366.152" stroke="url(#paint0_linear_402_4818)" stroke-width="10.4706"/>
</g>
<rect x="76.0259" y="179.92" width="147.645" height="77.8039" rx="38.9019" transform="rotate(-45 76.0259 179.92)" fill="white" stroke="#333333" stroke-width="8.37649"/>
<line y1="-4.18825" x2="81.8714" y2="-4.18825" transform="matrix(-0.707107 -0.707107 0.717278 -0.696787 184.304 184.272)" stroke="#333333" stroke-width="8.37649"/>
<mask id="mask1_402_4818" style="mask-type:alpha" maskUnits="userSpaceOnUse" x="0" y="69" width="242" height="242">
<rect x="69.5962" y="69.5962" width="242.918" height="98.4238" transform="rotate(45 69.5962 69.5962)" fill="#C4C4C4"/>
</mask>
<g mask="url(#mask1_402_4818)">
<path d="M125.477 148.039L111.36 163.039C105.36 169.414 103.177 178.486 105.621 186.892V186.892" stroke="#333333" stroke-width="8.37649" stroke-linecap="round"/>
<circle cx="105.587" cy="186.776" r="4.18825" fill="#333333"/>
</g>
<mask id="mask2_402_4818" style="mask-type:alpha" maskUnits="userSpaceOnUse" x="0" y="0" width="311" height="311">
<rect x="139.192" y="7.40384" width="232.502" height="186.367" transform="rotate(45 139.192 7.40384)" fill="#C4C4C4" stroke="#549FE4" stroke-width="10.4706"/>
</mask>
<g mask="url(#mask2_402_4818)">
<path d="M201.857 -55.6299L266.605 91.1939C279.419 120.25 250.014 149.974 220.821 137.476L153.924 108.837C124.731 96.3387 95.327 126.063 108.14 155.119L136.496 219.419C149.384 248.645 119.59 278.439 90.365 265.551L-55.1517 201.379" stroke="url(#paint1_linear_402_4818)" stroke-width="10.4706"/>
</g>
<mask id="mask3_402_4818" style="mask-type:alpha" maskUnits="userSpaceOnUse" x="69" y="0" width="242" height="242">
<rect x="139.192" width="242.918" height="98.4238" transform="rotate(45 139.192 0)" fill="#C4C4C4"/>
</mask>
<g mask="url(#mask3_402_4818)">
<mask id="mask4_402_4818" style="mask-type:alpha" maskUnits="userSpaceOnUse" x="0" y="0" width="311" height="311">
<rect x="139.192" y="7.40384" width="232.502" height="186.367" transform="rotate(45 139.192 7.40384)" fill="#C4C4C4" stroke="#549FE4" stroke-width="10.4706"/>
</mask>
<g mask="url(#mask4_402_4818)">
<path d="M201.857 -55.6299L266.605 91.1939C279.419 120.25 250.014 149.974 220.822 137.476L153.924 108.837C124.731 96.3387 95.3271 126.063 108.14 155.119L136.496 219.419C149.385 248.645 119.59 278.439 90.3651 265.551L-55.1516 201.379" stroke="url(#paint2_linear_402_4818)" stroke-width="10.4706"/>
</g>
<rect x="76.026" y="179.92" width="147.645" height="77.8039" rx="38.9019" transform="rotate(-45 76.026 179.92)" fill="white" stroke="#333333" stroke-width="8.37649"/>
<line y1="-4.18825" x2="81.8714" y2="-4.18825" transform="matrix(-0.707107 -0.707107 0.717278 -0.696787 184.305 184.272)" stroke="#333333" stroke-width="8.37649"/>
<mask id="mask5_402_4818" style="mask-type:alpha" maskUnits="userSpaceOnUse" x="0" y="0" width="311" height="311">
<rect x="139.192" y="7.40384" width="232.502" height="186.367" transform="rotate(45 139.192 7.40384)" fill="#C4C4C4" stroke="#549FE4" stroke-width="10.4706"/>
</mask>
<g mask="url(#mask5_402_4818)">
<path d="M366.159 109.143L219.335 44.3949C190.28 31.5816 160.555 60.9858 173.053 90.1787L201.693 157.076C214.191 186.269 184.466 215.673 155.41 202.86L91.1102 174.504C61.8849 161.616 32.0907 191.41 44.9788 220.635L109.15 366.152" stroke="url(#paint3_linear_402_4818)" stroke-width="10.4706"/>
</g>
</g>
<path d="M60.5479 364V324.357H74.6784C77.7626 324.357 80.3177 324.918 82.3437 326.041C84.3698 327.164 85.886 328.699 86.8926 330.648C87.8992 332.584 88.4024 334.765 88.4024 337.191C88.4024 339.63 87.8927 341.823 86.8732 343.772C85.8667 345.708 84.3439 347.243 82.305 348.379C80.279 349.502 77.7304 350.063 74.6591 350.063H64.9419V344.991H74.1171C76.0657 344.991 77.6465 344.656 78.8595 343.985C80.0725 343.301 80.963 342.372 81.5308 341.198C82.0986 340.023 82.3825 338.688 82.3825 337.191C82.3825 335.694 82.0986 334.365 81.5308 333.203C80.963 332.042 80.0661 331.132 78.8402 330.474C77.6271 329.816 76.027 329.487 74.0397 329.487H66.5292V364H60.5479ZM99.7564 346.346V364H93.9687V324.357H99.679V339.107H100.047C100.744 337.507 101.808 336.236 103.241 335.294C104.673 334.352 106.544 333.881 108.854 333.881C110.893 333.881 112.674 334.3 114.197 335.139C115.732 335.978 116.919 337.229 117.758 338.894C118.61 340.546 119.036 342.611 119.036 345.088V364H113.248V345.785C113.248 343.604 112.687 341.914 111.564 340.714C110.441 339.501 108.88 338.894 106.88 338.894C105.512 338.894 104.286 339.184 103.202 339.765C102.131 340.346 101.286 341.198 100.666 342.32C100.06 343.43 99.7564 344.772 99.7564 346.346ZM134.431 364.658C132.546 364.658 130.843 364.31 129.32 363.613C127.798 362.903 126.591 361.877 125.701 360.535C124.823 359.193 124.384 357.548 124.384 355.599C124.384 353.921 124.707 352.541 125.352 351.457C125.997 350.373 126.868 349.515 127.965 348.882C129.062 348.25 130.288 347.772 131.643 347.45C132.998 347.127 134.379 346.882 135.786 346.714C137.566 346.508 139.012 346.34 140.121 346.211C141.231 346.069 142.038 345.843 142.541 345.533C143.044 345.224 143.296 344.72 143.296 344.024V343.888C143.296 342.198 142.819 340.888 141.864 339.959C140.922 339.03 139.515 338.565 137.644 338.565C135.695 338.565 134.16 338.997 133.037 339.862C131.927 340.714 131.159 341.662 130.733 342.707L125.294 341.469C125.939 339.662 126.881 338.204 128.12 337.094C129.372 335.971 130.811 335.158 132.437 334.655C134.063 334.139 135.773 333.881 137.566 333.881C138.754 333.881 140.012 334.023 141.341 334.306C142.683 334.577 143.935 335.081 145.096 335.816C146.27 336.552 147.232 337.604 147.98 338.971C148.729 340.326 149.103 342.088 149.103 344.256V364H143.451V359.935H143.219C142.844 360.683 142.283 361.419 141.535 362.142C140.786 362.864 139.825 363.464 138.65 363.942C137.476 364.419 136.069 364.658 134.431 364.658ZM135.689 360.012C137.289 360.012 138.657 359.696 139.792 359.064C140.941 358.432 141.812 357.606 142.406 356.586C143.012 355.554 143.315 354.451 143.315 353.276V349.444C143.109 349.65 142.709 349.844 142.115 350.024C141.535 350.192 140.87 350.34 140.121 350.469C139.373 350.586 138.644 350.695 137.934 350.799C137.224 350.889 136.631 350.966 136.153 351.031C135.031 351.173 134.005 351.411 133.076 351.747C132.159 352.083 131.424 352.566 130.869 353.199C130.327 353.818 130.056 354.644 130.056 355.676C130.056 357.109 130.585 358.193 131.643 358.928C132.701 359.651 134.05 360.012 135.689 360.012ZM155.831 364V334.268H161.425V338.991H161.735C162.277 337.391 163.231 336.132 164.599 335.216C165.98 334.287 167.542 333.823 169.284 333.823C169.645 333.823 170.071 333.835 170.561 333.861C171.065 333.887 171.458 333.919 171.742 333.958V339.494C171.51 339.43 171.097 339.359 170.503 339.281C169.91 339.191 169.316 339.146 168.722 339.146C167.355 339.146 166.135 339.436 165.064 340.017C164.006 340.585 163.167 341.378 162.548 342.398C161.928 343.404 161.618 344.553 161.618 345.843V364H155.831Z" fill="black" fill-opacity="0.7"/>
<path d="M179.232 324.357H186.491L199.111 355.173H199.576L212.197 324.357H219.456V364H213.765V335.313H213.397L201.705 363.942H196.982L185.291 335.294H184.923V364H179.232V324.357ZM239.52 364.6C236.591 364.6 234.068 363.974 231.952 362.722C229.848 361.458 228.222 359.683 227.074 357.399C225.938 355.102 225.37 352.412 225.37 349.327C225.37 346.282 225.938 343.598 227.074 341.275C228.222 338.952 229.822 337.139 231.874 335.836C233.939 334.532 236.352 333.881 239.114 333.881C240.791 333.881 242.417 334.158 243.992 334.713C245.566 335.268 246.979 336.139 248.231 337.326C249.482 338.513 250.47 340.055 251.192 341.952C251.915 343.837 252.276 346.127 252.276 348.824V350.876H228.642V346.54H246.605C246.605 345.017 246.295 343.669 245.676 342.494C245.056 341.307 244.185 340.372 243.062 339.688C241.953 339.004 240.649 338.662 239.152 338.662C237.526 338.662 236.107 339.062 234.894 339.862C233.694 340.649 232.765 341.681 232.106 342.959C231.461 344.224 231.139 345.598 231.139 347.082V350.469C231.139 352.457 231.487 354.147 232.184 355.541C232.894 356.935 233.881 357.999 235.145 358.735C236.41 359.457 237.888 359.819 239.578 359.819C240.675 359.819 241.675 359.664 242.578 359.354C243.482 359.032 244.263 358.554 244.921 357.922C245.579 357.29 246.082 356.509 246.43 355.58L251.908 356.567C251.47 358.18 250.683 359.593 249.547 360.806C248.424 362.006 247.011 362.942 245.308 363.613C243.617 364.271 241.688 364.6 239.52 364.6Z" fill="white"/>
<defs>
<linearGradient id="paint0_linear_402_4818" x1="109.15" y1="366.152" x2="-40.7732" y2="99.0828" gradientUnits="userSpaceOnUse">
<stop stop-color="#5B16D0"/>
<stop offset="1" stop-color="#3594DD"/>
</linearGradient>
<linearGradient id="paint1_linear_402_4818" x1="78.4843" y1="239.777" x2="256.925" y2="214.214" gradientUnits="userSpaceOnUse">
<stop stop-color="#5B16D0"/>
<stop offset="1" stop-color="#3594DD"/>
</linearGradient>
<linearGradient id="paint2_linear_402_4818" x1="-55.1516" y1="201.379" x2="211.917" y2="351.303" gradientUnits="userSpaceOnUse">
<stop stop-color="#5B16D0"/>
<stop offset="1" stop-color="#3594DD"/>
</linearGradient>
<linearGradient id="paint3_linear_402_4818" x1="75.3432" y1="292.13" x2="56.065" y2="41.7694" gradientUnits="userSpaceOnUse">
<stop stop-color="#5B16D0"/>
<stop offset="0.962098" stop-color="#3594DD"/>
</linearGradient>
</defs>
</svg>
