<svg width="213" height="207" viewBox="0 0 213 207" fill="none" xmlns="http://www.w3.org/2000/svg">
<g clip-path="url(#clip0_1_8)">
<path d="M148.25 140.219C146.051 143.047 143.433 145.543 140.5 147.604C137.148 149.96 133.385 151.749 129.364 152.818C122.236 154.714 114.299 154.346 106.411 150.868L42.1105 122.512C31.9409 118.027 21.7024 118.711 13.2174 122.74C9.82077 124.353 6.70515 126.502 3.98742 129.071" stroke="#D80B8C" stroke-opacity="0.8" stroke-width="10.4706"/>
<path d="M64.5598 67.0224C67.875 62.7603 72.1394 59.253 77 56.8495C79.0514 55.8352 81.2091 55.0174 83.4464 54.4226C90.5746 52.5273 98.5115 52.8944 106.399 56.3728L170.7 84.7288C180.869 89.2134 191.108 88.5299 199.593 84.5007C202.989 82.8877 206.105 80.7387 208.823 78.1703" stroke="#01AEEF" stroke-opacity="0.8" stroke-width="10.4706"/>
<path d="M103.685 51.2996L54.2996 100.685C39.1074 115.877 39.1075 140.508 54.2997 155.7C69.4918 170.893 94.1231 170.893 109.315 155.7L158.7 106.315C173.893 91.1232 173.892 66.4918 158.7 51.2996C143.508 36.1075 118.877 36.1075 103.685 51.2996Z" fill="white" stroke="#221F73" stroke-width="8.37649"/>
<path d="M135.446 132.446L77.554 74.5541" stroke="#221F73" stroke-width="8.37605"/>
<path d="M78.8116 98.4268L66.3552 111.662L64.6946 113.427C58.6946 119.802 56.5116 128.874 58.9556 137.28" stroke="#221F73" stroke-width="8.37649" stroke-linecap="round"/>
<path d="M127.971 3.74445C121.119 13.0058 118.671 25.6159 124.053 38.1868L152.693 105.084C155.607 111.891 156.226 118.708 155.093 125C154.081 130.621 151.671 135.821 148.25 140.219" stroke="#D80B8C" stroke-opacity="0.8" stroke-width="10.4706"/>
<path d="M84.8393 203.496C91.6913 194.235 94.1389 181.625 88.757 169.054L60.117 102.157C56.7744 94.349 56.4521 86.5262 58.3293 79.5C59.5506 74.9292 61.7027 70.6955 64.5598 67.0223" stroke="#01AEEF" stroke-opacity="0.8" stroke-width="10.4706"/>
</g>
<defs>
<clipPath id="clip0_1_8">
<rect width="213" height="207" fill="white"/>
</clipPath>
</defs>
</svg>
