<svg width="311" height="97" viewBox="0 0 311 97" fill="none" xmlns="http://www.w3.org/2000/svg">
<defs>
<linearGradient id="paint0_linear_266_3796" x1="33.7663" y1="113.271" x2="-12.6135" y2="30.6518" gradientUnits="userSpaceOnUse">
<stop stop-color="#5B16D0"/>
<stop offset="1" stop-color="#3594DD"/>
</linearGradient>
<linearGradient id="paint1_linear_266_3796" x1="24.2796" y1="74.1765" x2="79.4815" y2="66.2685" gradientUnits="userSpaceOnUse">
<stop stop-color="#5B16D0"/>
<stop offset="1" stop-color="#3594DD"/>
</linearGradient>
<linearGradient id="paint2_linear_266_3796" x1="-17.0615" y1="62.2978" x2="65.558" y2="108.678" gradientUnits="userSpaceOnUse">
<stop stop-color="#5B16D0"/>
<stop offset="1" stop-color="#3594DD"/>
</linearGradient>
<linearGradient id="paint3_linear_266_3796" x1="23.3079" y1="90.3723" x2="17.344" y2="12.9216" gradientUnits="userSpaceOnUse">
<stop stop-color="#5B16D0"/>
<stop offset="0.962098" stop-color="#3594DD"/>
</linearGradient>
</defs>
<mask id="mask0_266_3796" style="mask-type:alpha" maskUnits="userSpaceOnUse" x="0" y="0" width="97" height="97">
<rect x="43.06" y="2.29049" width="71.926" height="57.6538" transform="rotate(45 43.06 2.29049)" fill="#C4C4C4" stroke="#549FE4" stroke-width="3.23915"/>
</mask>
<g mask="url(#mask0_266_3796)">
<path d="M113.274 33.764L67.8527 13.7338C58.8641 9.76992 49.6687 18.8663 53.535 27.8973L62.3949 48.5924C66.2612 57.6234 57.0658 66.7198 48.0772 62.7559L28.1854 53.9838C19.1444 49.9968 9.9274 59.2138 13.9144 68.2548L33.7663 113.271" stroke="url(#paint0_linear_266_3796)" stroke-width="3.23915"/>
</g>
<rect x="23.519" y="55.6594" width="45.6749" height="24.0691" rx="12.0346" transform="rotate(-45 23.519 55.6594)" fill="white" stroke="#333333" stroke-width="2.59132"/>
<line y1="-1.29566" x2="25.3274" y2="-1.29566" transform="matrix(-0.707107 -0.707107 0.717278 -0.696787 57.0156 57.0056)" stroke="#333333" stroke-width="2.59132"/>
<mask id="mask1_266_3796" style="mask-type:alpha" maskUnits="userSpaceOnUse" x="0" y="21" width="75" height="76">
<rect x="21.5299" y="21.53" width="75.1483" height="30.448" transform="rotate(45 21.5299 21.53)" fill="#C4C4C4"/>
</mask>
<g mask="url(#mask1_266_3796)">
<path d="M38.817 45.7967L34.4498 50.4371C32.5937 52.4092 31.9184 55.2157 32.6744 57.8163V57.8163" stroke="#333333" stroke-width="2.59132" stroke-linecap="round"/>
<circle cx="32.6641" cy="57.7802" r="1.29566" fill="#333333"/>
</g>
<mask id="mask2_266_3796" style="mask-type:alpha" maskUnits="userSpaceOnUse" x="0" y="0" width="97" height="97">
<rect x="43.06" y="2.29049" width="71.926" height="57.6538" transform="rotate(45 43.06 2.29049)" fill="#C4C4C4" stroke="#549FE4" stroke-width="3.23915"/>
</mask>
<g mask="url(#mask2_266_3796)">
<path d="M62.4458 -17.2094L82.476 28.2114C86.4399 37.2 77.3435 46.3955 68.3125 42.5292L47.6174 33.6693C38.5864 29.803 29.49 38.9984 33.4539 47.987L42.226 67.8787C46.213 76.9198 36.996 86.1368 27.955 82.1498L-17.0615 62.2979" stroke="url(#paint1_linear_266_3796)" stroke-width="3.23915"/>
</g>
<mask id="mask3_266_3796" style="mask-type:alpha" maskUnits="userSpaceOnUse" x="21" y="0" width="76" height="75">
<rect x="43.06" y="3.05176e-05" width="75.1483" height="30.448" transform="rotate(45 43.06 3.05176e-05)" fill="#C4C4C4"/>
</mask>
<g mask="url(#mask3_266_3796)">
<mask id="mask4_266_3796" style="mask-type:alpha" maskUnits="userSpaceOnUse" x="0" y="0" width="97" height="97">
<rect x="43.06" y="2.29046" width="71.926" height="57.6538" transform="rotate(45 43.06 2.29046)" fill="#C4C4C4" stroke="#549FE4" stroke-width="3.23915"/>
</mask>
<g mask="url(#mask4_266_3796)">
<path d="M62.4458 -17.2095L82.4761 28.2114C86.44 37.2 77.3436 46.3955 68.3126 42.5291L47.6175 33.6693C38.5864 29.8029 29.4901 38.9984 33.454 47.987L42.226 67.8787C46.2131 76.9197 36.9961 86.1367 27.955 82.1497L-17.0615 62.2978" stroke="url(#paint2_linear_266_3796)" stroke-width="3.23915"/>
</g>
<rect x="23.5192" y="55.6594" width="45.6749" height="24.0691" rx="12.0346" transform="rotate(-45 23.5192 55.6594)" fill="white" stroke="#333333" stroke-width="2.59132"/>
<line y1="-1.29566" x2="25.3274" y2="-1.29566" transform="matrix(-0.707107 -0.707107 0.717278 -0.696787 57.0158 57.0056)" stroke="#333333" stroke-width="2.59132"/>
<mask id="mask5_266_3796" style="mask-type:alpha" maskUnits="userSpaceOnUse" x="0" y="0" width="97" height="97">
<rect x="43.06" y="2.29046" width="71.926" height="57.6538" transform="rotate(45 43.06 2.29046)" fill="#C4C4C4" stroke="#549FE4" stroke-width="3.23915"/>
</mask>
<g mask="url(#mask5_266_3796)">
<path d="M113.274 33.764L67.8528 13.7338C58.8642 9.76992 49.6687 18.8663 53.535 27.8973L62.3949 48.5924C66.2612 57.6234 57.0658 66.7198 48.0772 62.7559L28.1855 53.9838C19.1444 49.9968 9.92743 59.2138 13.9144 68.2548L33.7663 113.271" stroke="url(#paint3_linear_266_3796)" stroke-width="3.23915"/>
</g>
</g>
<path d="M101.021 68.0602V28.4773H115.13C118.21 28.4773 120.761 29.0378 122.784 30.1588C124.807 31.2798 126.321 32.8132 127.326 34.7588C128.331 36.6916 128.834 38.8691 128.834 41.2915C128.834 43.7268 128.325 45.9173 127.307 47.8629C126.302 49.7957 124.781 51.329 122.745 52.4629C120.722 53.5839 118.178 54.1444 115.111 54.1444H105.409V49.0806H114.57C116.515 49.0806 118.094 48.7455 119.305 48.0755C120.516 47.3926 121.405 46.4649 121.972 45.2923C122.539 44.1198 122.823 42.7862 122.823 41.2915C122.823 39.7969 122.539 38.4697 121.972 37.3101C121.405 36.1504 120.51 35.242 119.286 34.5849C118.075 33.9277 116.477 33.5992 114.492 33.5992H106.993V68.0602H101.021ZM140.17 50.4335V68.0602H134.391V28.4773H140.093V43.205H140.46C141.156 41.6072 142.219 40.338 143.649 39.3974C145.08 38.4568 146.948 37.9865 149.254 37.9865C151.29 37.9865 153.068 38.4053 154.589 39.2428C156.122 40.0803 157.307 41.3302 158.145 42.9924C158.995 44.6417 159.421 46.7033 159.421 49.1772V68.0602H153.642V49.873C153.642 47.6954 153.081 46.0075 151.96 44.8092C150.839 43.598 149.28 42.9924 147.283 42.9924C145.917 42.9924 144.693 43.2823 143.611 43.8621C142.541 44.4419 141.697 45.2923 141.079 46.4133C140.473 47.5215 140.17 48.8615 140.17 50.4335ZM174.792 68.7174C172.911 68.7174 171.21 68.3695 169.69 67.6737C168.169 66.965 166.964 65.9406 166.075 64.6006C165.199 63.2606 164.761 61.6177 164.761 59.6721C164.761 57.997 165.083 56.6183 165.727 55.536C166.372 54.4536 167.241 53.5968 168.337 52.9654C169.432 52.334 170.656 51.8573 172.009 51.5352C173.362 51.213 174.741 50.9682 176.145 50.8007C177.923 50.5945 179.366 50.427 180.474 50.2982C181.583 50.1565 182.388 49.931 182.89 49.6217C183.393 49.3125 183.644 48.81 183.644 48.1142V47.9789C183.644 46.2909 183.167 44.9831 182.214 44.0554C181.273 43.1277 179.869 42.6638 178 42.6638C176.055 42.6638 174.522 43.0954 173.401 43.9587C172.292 44.8092 171.526 45.7562 171.101 46.7999L165.669 45.5629C166.314 43.759 167.254 42.303 168.491 41.1949C169.741 40.0739 171.178 39.2621 172.801 38.7596C174.425 38.2442 176.132 37.9865 177.923 37.9865C179.109 37.9865 180.365 38.1283 181.692 38.4117C183.032 38.6823 184.282 39.1848 185.442 39.9193C186.614 40.6537 187.574 41.7039 188.321 43.0697C189.069 44.4226 189.442 46.1814 189.442 48.3461V68.0602H183.799V64.0014H183.567C183.193 64.7488 182.633 65.4832 181.885 66.2048C181.138 66.9264 180.178 67.5255 179.006 68.0023C177.833 68.479 176.428 68.7174 174.792 68.7174ZM176.048 64.0788C177.646 64.0788 179.012 63.7631 180.146 63.1317C181.293 62.5003 182.162 61.6757 182.755 60.6578C183.361 59.627 183.663 58.5253 183.663 57.3528V53.5259C183.457 53.7321 183.058 53.9253 182.465 54.1057C181.885 54.2732 181.222 54.4214 180.474 54.5503C179.727 54.6662 178.999 54.7757 178.29 54.8788C177.582 54.969 176.989 55.0463 176.512 55.1108C175.391 55.2525 174.367 55.4909 173.439 55.8259C172.524 56.1609 171.79 56.6441 171.236 57.2754C170.695 57.8939 170.424 58.7186 170.424 59.7494C170.424 61.1796 170.952 62.262 172.009 62.9964C173.065 63.718 174.412 64.0788 176.048 64.0788ZM196.16 68.0602V38.3731H201.746V43.089H202.055C202.596 41.4913 203.55 40.235 204.915 39.3201C206.294 38.3924 207.853 37.9285 209.593 37.9285C209.953 37.9285 210.379 37.9414 210.868 37.9672C211.371 37.993 211.764 38.0252 212.047 38.0638V43.5915C211.815 43.5271 211.403 43.4562 210.81 43.3789C210.218 43.2887 209.625 43.2436 209.032 43.2436C207.666 43.2436 206.449 43.5335 205.379 44.1134C204.323 44.6803 203.485 45.4727 202.867 46.4907C202.248 47.4957 201.939 48.6425 201.939 49.931V68.0602H196.16Z" fill="black" fill-opacity="0.7"/>
<path d="M219.526 28.4773H226.774L239.375 59.2469H239.839L252.441 28.4773H259.689V68.0602H254.006V39.4168H253.639L241.965 68.0023H237.249L225.575 39.3974H225.208V68.0602H219.526V28.4773ZM279.723 68.6594C276.798 68.6594 274.279 68.0345 272.166 66.7846C270.065 65.5219 268.442 63.7502 267.295 61.4695C266.161 59.176 265.594 56.4895 265.594 53.4099C265.594 50.3691 266.161 47.689 267.295 45.3697C268.442 43.0503 270.04 41.24 272.088 39.9386C274.15 38.6372 276.56 37.9865 279.317 37.9865C280.992 37.9865 282.616 38.2635 284.188 38.8176C285.759 39.3717 287.17 40.2414 288.42 41.4268C289.67 42.6123 290.656 44.152 291.377 46.0461C292.099 47.9273 292.46 50.2144 292.46 52.9074V54.9561H268.861V50.6268H286.797C286.797 49.1063 286.487 47.7598 285.869 46.5873C285.251 45.4019 284.381 44.4677 283.26 43.7848C282.152 43.1019 280.85 42.7604 279.356 42.7604C277.732 42.7604 276.315 43.1599 275.104 43.9587C273.905 44.7447 272.978 45.7755 272.32 47.0512C271.676 48.3139 271.354 49.6862 271.354 51.1679V54.5503C271.354 56.5346 271.702 58.2225 272.398 59.6141C273.106 61.0057 274.092 62.0687 275.355 62.8031C276.618 63.5247 278.093 63.8855 279.781 63.8855C280.876 63.8855 281.875 63.7309 282.777 63.4216C283.679 63.0995 284.458 62.6227 285.115 61.9914C285.772 61.36 286.275 60.5805 286.623 59.6527L292.092 60.6384C291.654 62.2491 290.868 63.66 289.735 64.8712C288.614 66.0695 287.203 67.0037 285.502 67.6737C283.814 68.3308 281.888 68.6594 279.723 68.6594Z" fill="#5063E6"/>
</svg>
