<svg width="104" height="133" viewBox="0 0 104 133" fill="none" xmlns="http://www.w3.org/2000/svg">
<path d="M6.90746 93.4965C8.00645 92.7351 8.27559 91.257 7.53545 90.1597C7.44574 90.0477 7.35602 89.9358 7.26631 89.8238L8.2083 68.9971L3.4535 69.5345L3.72264 89.9134C2.82551 90.9211 2.91522 92.4439 3.9245 93.3173C4.75434 94.0563 5.9879 94.1235 6.90746 93.4965Z" fill="#FFB8B8"/>
<path d="M15.5879 128.745L18.3017 129.215L20.9707 119.026L17.427 118.332L15.5879 128.745Z" fill="#FFB8B8"/>
<path d="M23.0784 132.664L14.5781 131.164L15.1613 127.872L20.3871 128.79C22.1813 129.103 23.3924 130.85 23.0784 132.664Z" fill="#2F2E41"/>
<path d="M8.16406 130.111H10.9227L12.2236 119.519H8.16406V130.111Z" fill="#FFB8B8"/>
<path d="M16.2159 132.664H7.58105V129.327H12.8741C14.7132 129.327 16.2159 130.805 16.2159 132.664Z" fill="#2F2E41"/>
<path d="M19.8487 127.2C19.8038 127.2 19.759 127.2 19.7141 127.2L16.4844 126.931C15.8789 126.864 15.4527 126.326 15.52 125.722C15.52 125.699 15.52 125.677 15.52 125.677L18.503 108.948L16.4844 98.311C16.4396 98.1095 16.2602 97.9751 16.0583 98.0199C15.9013 98.0423 15.7667 98.1766 15.7667 98.3558L13.2323 126.707C13.165 127.289 12.6492 127.737 12.0661 127.692L9.01581 127.58C8.45511 127.536 8.02897 127.088 8.00654 126.55L7.80469 92.5557L23.6166 90.585L24.7156 107.605V107.627L20.9028 126.371C20.8131 126.864 20.3645 127.2 19.8487 127.2Z" fill="#2F2E41"/>
<path d="M13.031 55.4931C16.0782 55.4931 18.5484 53.0266 18.5484 49.9841C18.5484 46.9416 16.0782 44.4751 13.031 44.4751C9.98388 44.4751 7.51367 46.9416 7.51367 49.9841C7.51367 53.0266 9.98388 55.4931 13.031 55.4931Z" fill="#FFB8B8"/>
<path d="M18.2346 95.0418C17.3823 95.0418 16.53 94.7955 15.7899 94.3476C13.1209 92.6904 10.0931 93.3398 8.5231 93.8773C8.2091 93.9893 7.85025 93.9445 7.58111 93.7653C7.31197 93.5862 7.11012 93.2951 7.08769 92.9591L4.23929 67.5192C3.7683 63.2642 6.32513 59.2557 10.3622 57.9792C10.5192 57.9344 10.6762 57.8896 10.8332 57.8448C13.3676 57.1506 16.0814 57.6209 18.2346 59.1213C20.4325 60.6441 21.8455 63.0403 22.0922 65.7052L24.4472 91.3468C24.4696 91.6827 24.3575 92.0186 24.1108 92.2425C23.2585 93.0263 20.8138 95.0418 18.2346 95.0418Z" fill="#6C63FF"/>
<path d="M9.53198 72.9831L3.09506 72.2665C2.39978 72.1993 1.88393 71.5498 1.95122 70.8556C1.95122 70.7884 1.97364 70.7212 1.99607 70.6765L3.63334 64.4508C3.85762 62.5025 5.62946 61.0917 7.58072 61.338C9.53198 61.5619 10.9225 63.3087 10.7207 65.257L10.9674 71.6842C10.9898 72.4008 10.4515 72.9831 9.73383 73.0055C9.66655 73.0055 9.59926 73.0055 9.53198 72.9831Z" fill="#6C63FF"/>
<path d="M24.4244 92.6005C25.4336 91.7272 25.5233 90.2044 24.6486 89.1966C24.5589 89.0846 24.4468 88.9951 24.3346 88.9055L22.7422 68.1235L18.0771 69.1761L20.8134 89.4206C20.0508 90.5179 20.32 92.0183 21.419 92.7797C22.361 93.4067 23.5945 93.3396 24.4244 92.6005Z" fill="#FFB8B8"/>
<path d="M16.3052 71.6845C16.0361 71.4382 15.8791 71.0799 15.9015 70.6992L16.1482 64.272C15.924 62.3237 17.3369 60.5545 19.2882 60.353C21.2395 60.129 22.9889 61.5399 23.2132 63.4882L24.8504 69.7138C25.0299 70.408 24.6261 71.1023 23.9309 71.2814C23.8636 71.3038 23.8187 71.3038 23.7514 71.3262L17.3145 72.0428C16.9332 72.0652 16.5744 71.9309 16.3052 71.6845Z" fill="#6C63FF"/>
<path d="M12.717 55.6946C12.6273 55.6946 12.5151 55.6722 12.4254 55.6498H12.403C7.55848 54.9108 6.48192 52.1115 6.25764 50.947C6.01093 49.7377 6.3025 48.5732 6.90806 48.1029C6.57164 47.028 6.6165 46.065 7.06506 45.2588C7.85005 43.848 9.5546 43.3777 9.77889 43.3105C11.147 42.3028 12.7618 42.9746 13.0534 43.109C15.6775 42.146 16.6868 42.9522 16.8662 43.1314C18.0325 43.3329 18.7502 43.8032 18.9969 44.475C19.4455 45.7515 18.0325 47.3639 17.9652 47.4311L17.9428 47.4759L15.8345 47.5654C15.0495 47.6102 14.444 48.2597 14.4888 49.0659C14.4888 49.1106 14.4888 49.1554 14.5113 49.2226C14.5785 49.469 14.6458 49.7377 14.7355 49.984C15.0944 51.1037 15.3635 52.0667 15.0271 52.425C14.8701 52.5594 14.6458 52.6042 14.444 52.537C14.1075 52.4474 13.8833 52.4698 13.7711 52.5818C13.5917 52.7833 13.659 53.2536 13.9281 53.9478C14.1075 54.3957 14.0178 54.8884 13.7038 55.2467C13.4123 55.5378 13.0758 55.6946 12.717 55.6946Z" fill="#2F2E41"/>
<path d="M31.6239 133H0.224283C0.0897132 133 0 132.911 0 132.776C0 132.642 0.0897132 132.552 0.224283 132.552H31.6239C31.7585 132.552 31.8482 132.642 31.8482 132.776C31.8482 132.911 31.7585 133 31.6239 133Z" fill="#CCCCCC"/>
<path d="M96.1498 94.952H41.8733C37.5447 94.952 34.0234 91.4361 34.0234 87.114V7.83802C34.0234 3.51591 37.5447 0 41.8733 0H96.1498C100.478 0 104 3.51591 104 7.83802V87.114C104 91.4361 100.478 94.9296 96.1498 94.952Z" fill="white"/>
<path d="M87.6277 62.928H50.3967C46.5839 62.9056 46.5839 57.1279 50.3967 57.1055H87.6277C91.4405 57.1279 91.4405 62.9056 87.6277 62.928Z" fill="#CCCCCC"/>
<path d="M87.6277 16.3255H50.3967C46.5839 16.3031 46.5839 10.5253 50.3967 10.5029H87.6277C91.4405 10.5253 91.4405 16.3031 87.6277 16.3255Z" fill="#CCCCCC"/>
<path d="M87.6277 73.6775H50.3967C46.5839 73.6551 46.5839 67.8774 50.3967 67.855H87.6277C91.4405 67.8774 91.4405 73.6551 87.6277 73.6775Z" fill="#CCCCCC"/>
<path d="M87.6277 84.4265H50.3967C46.5839 84.4041 46.5839 78.6264 50.3967 78.604H87.6277C91.4405 78.6264 91.4405 84.4041 87.6277 84.4265Z" fill="#CCCCCC"/>
<path d="M86.9541 50.1185H51.0688C49.0279 50.1185 47.3682 48.4614 47.3682 46.4235V26.3582C47.3682 24.3203 49.0279 22.6631 51.0688 22.6631H86.9541C88.9951 22.6631 90.6548 24.3203 90.6548 26.3582V46.4235C90.6548 48.4614 88.9951 50.1185 86.9541 50.1185Z" fill="#6C63FF"/>
<path d="M96.1498 94.952H41.8733C37.5447 94.952 34.0234 91.4361 34.0234 87.114V7.83802C34.0234 3.51591 37.5447 0 41.8733 0H96.1498C100.478 0 104 3.51591 104 7.83802V87.114C104 91.4361 100.478 94.9296 96.1498 94.952ZM41.8733 1.34366C38.2848 1.34366 35.3691 4.25493 35.3691 7.83802V87.114C35.3691 90.6971 38.2848 93.6084 41.8733 93.6084H96.1498C99.7383 93.6084 102.654 90.6971 102.654 87.114V7.83802C102.654 4.25493 99.7383 1.34366 96.1498 1.34366H41.8733Z" fill="#E6E6E6"/>
</svg>
