<?xml version="1.0" encoding="UTF-8" standalone="no"?>
<svg
   width="220"
   height="220"
   viewBox="0 0 220 220"
   fill="none"
   version="1.1"
   id="svg153"
   sodipodi:docname="1.svg.2023_06_05_12_35_19.0.svg"
   inkscape:version="1.2.2 (b0a8486, 2022-12-01)"
   inkscape:export-filename="1.svg.2023_06_05_12_35_19.0.png"
   inkscape:export-xdpi="300"
   inkscape:export-ydpi="300"
   xmlns:inkscape="http://www.inkscape.org/namespaces/inkscape"
   xmlns:sodipodi="http://sodipodi.sourceforge.net/DTD/sodipodi-0.dtd"
   xmlns="http://www.w3.org/2000/svg"
   xmlns:svg="http://www.w3.org/2000/svg">
  <sodipodi:namedview
     id="namedview155"
     pagecolor="#000000"
     bordercolor="#666666"
     borderopacity="1.0"
     inkscape:showpageshadow="2"
     inkscape:pageopacity="0"
     inkscape:pagecheckerboard="0"
     inkscape:deskcolor="#d1d1d1"
     showgrid="false"
     inkscape:zoom="2.4589981"
     inkscape:cx="63.033802"
     inkscape:cy="103.49744"
     inkscape:window-width="1920"
     inkscape:window-height="1027"
     inkscape:window-x="0"
     inkscape:window-y="25"
     inkscape:window-maximized="1"
     inkscape:current-layer="svg153" />
  <path
     d="M 107.28018,57.679397 57.894777,107.0648 c -15.192203,15.192 -15.192103,39.823 1e-4,55.015 15.1921,15.193 39.8234,15.193 55.015303,0 l 49.385,-49.385 c 15.193,-15.191803 15.192,-39.823203 0,-55.015403 -15.192,-15.1921 -39.823,-15.1921 -55.015,0 z"
     fill="#ffffff"
     stroke="#221f73"
     stroke-width="8.37649"
     id="path136-3"
     style="fill:none;stroke:#ffffff;stroke-width:12.5284;stroke-dasharray:none"
     clip-path="none"
     mask="none" />
  <path
     d="m 151.84518,146.5988 c -2.199,2.828 -4.817,5.324 -7.75,7.385 -3.352,2.356 -7.115,4.145 -11.136,5.214 -7.128,1.896 -15.065,1.528 -22.953,-1.95 l -64.300503,-28.356 c -10.1696,-4.485 -20.4081,-3.801 -28.8931,0.228 -3.39663,1.613 -6.51225,3.762 -9.2299799,6.331"
     stroke="#d80b8c"
     stroke-opacity="0.8"
     stroke-width="10.4706"
     id="path132-9"
     style="stroke:#ffffff;stroke-width:15.6611;stroke-linecap:butt;stroke-dasharray:none;stroke-opacity:1"
     clip-path="none"
     mask="none" />
  <path
     d="m 131.56618,10.124246 c -6.852,9.26135 -9.3,21.87145 -3.918,34.44235 l 28.64,66.897204 c 2.914,6.807 3.533,13.624 2.4,19.916 -1.012,5.621 -3.422,10.821 -6.843,15.219"
     stroke="#d80b8c"
     stroke-opacity="0.8"
     stroke-width="10.4706"
     id="path142-7"
     style="stroke:#ffffff;stroke-width:15.6611;stroke-dasharray:none;stroke-opacity:1"
     clip-path="none"
     mask="none" />
  <path
     d="m 68.154978,73.402197 c 3.3152,-4.2621 7.5796,-7.7694 12.4402,-10.1729 2.051401,-1.0143 4.209101,-1.8321 6.4464,-2.4269 7.128201,-1.8953 15.065102,-1.5282 22.952602,1.9502 l 64.301,28.356 c 10.169,4.4846 20.408,3.8011 28.893,-0.2281 3.396,-1.613 6.512,-3.762 9.23,-6.3304"
     stroke="#01aeef"
     stroke-opacity="0.8"
     stroke-width="10.4706"
     id="path134-0"
     style="stroke:#ffffff;stroke-width:15.6605;stroke-dasharray:none;stroke-opacity:1"
     clip-path="none"
     mask="none" />
  <path
     d="m 88.434478,209.8758 c 6.852,-9.261 9.2996,-21.871 3.9177,-34.442 l -28.64,-66.897 c -3.3426,-7.808 -3.664899,-15.630803 -1.787699,-22.657003 1.2213,-4.5708 3.3734,-8.8045 6.2305,-12.4777"
     stroke="#01aeef"
     stroke-opacity="0.8"
     stroke-width="10.4706"
     id="path144-3"
     style="stroke:#ffffff;stroke-width:15.6605;stroke-dasharray:none;stroke-opacity:1"
     clip-path="none"
     mask="none" />
  <path
     d="m 151.84518,146.5988 c -2.199,2.828 -4.817,5.324 -7.75,7.385 -3.352,2.356 -7.115,4.145 -11.136,5.214 -7.128,1.896 -15.065,1.528 -22.953,-1.95 l -64.300503,-28.356 c -10.1696,-4.485 -20.4081,-3.801 -28.8931,0.228 -3.39663,1.613 -6.51225,3.762 -9.2299804,6.331"
     stroke="#d80b8c"
     stroke-opacity="0.8"
     stroke-width="10.4706"
     id="path132"
     clip-path="none"
     mask="none" />
  <path
     d="m 68.154977,73.402197 c 3.3152,-4.2621 7.5796,-7.7694 12.4402,-10.1729 2.0514,-1.0143 4.2091,-1.8321 6.4464,-2.4269 7.1282,-1.8953 15.065103,-1.5282 22.952603,1.9502 l 64.301,28.356 c 10.169,4.4846 20.408,3.8011 28.893,-0.2281 3.396,-1.613 6.512,-3.762 9.23,-6.3304"
     stroke="#01aeef"
     stroke-opacity="0.8"
     stroke-width="10.4706"
     id="path134"
     clip-path="none"
     mask="none" />
  <path
     d="M 107.28018,57.679397 57.894777,107.0648 c -15.1922,15.192 -15.1921,39.823 1e-4,55.015 15.1921,15.193 39.8234,15.193 55.015303,0 l 49.385,-49.385 c 15.193,-15.191803 15.192,-39.823203 0,-55.015403 -15.192,-15.1921 -39.823,-15.1921 -55.015,0 z"
     fill="#ffffff"
     stroke="#221f73"
     stroke-width="8.37649"
     id="path136"
     clip-path="none"
     mask="none" />
  <path
     d="M 139.04118,138.8258 81.149177,80.933897"
     stroke="#221f73"
     stroke-width="8.37605"
     id="path138"
     clip-path="none"
     mask="none" />
  <path
     d="m 82.406777,104.8066 -12.4564,13.2352 -1.6606,1.765 c -6,6.375 -8.183,15.447 -5.739,23.853"
     stroke="#221f73"
     stroke-width="8.37649"
     stroke-linecap="round"
     id="path140"
     clip-path="none"
     mask="none" />
  <path
     d="m 131.56618,10.124247 c -6.852,9.26135 -9.3,21.87145 -3.918,34.44235 l 28.64,66.897203 c 2.914,6.807 3.533,13.624 2.4,19.916 -1.012,5.621 -3.422,10.821 -6.843,15.219"
     stroke="#d80b8c"
     stroke-opacity="0.8"
     stroke-width="10.4706"
     id="path142"
     clip-path="none"
     mask="none" />
  <path
     d="m 88.434477,209.8758 c 6.852,-9.261 9.2996,-21.871 3.9177,-34.442 l -28.64,-66.897 c -3.3426,-7.808 -3.6649,-15.630803 -1.7877,-22.657003 1.2213,-4.5708 3.3734,-8.8045 6.2305,-12.4777"
     stroke="#01aeef"
     stroke-opacity="0.8"
     stroke-width="10.4706"
     id="path144"
     clip-path="url(#clipPath7559)"
     mask="none" />
  <defs
     id="defs151">
    <clipPath
       id="clip0_1_8-9">
      <rect
         width="213"
         height="207"
         fill="#ffffff"
         id="rect148-8"
         x="0"
         y="0" />
    </clipPath>
    <clipPath
       clipPathUnits="userSpaceOnUse"
       id="clipPath7559">
      <g
         id="g7563">
        <rect
           width="213"
           height="207"
           fill="#ffffff"
           id="rect7561"
           x="3.5951767"
           y="6.379797" />
      </g>
    </clipPath>
    <filter
       id="mask-powermask-path-effect7675_inverse"
       inkscape:label="filtermask-powermask-path-effect7675"
       style="color-interpolation-filters:sRGB"
       height="100"
       width="100"
       x="-50"
       y="-50">
      <feColorMatrix
         id="mask-powermask-path-effect7675_primitive1"
         values="1"
         type="saturate"
         result="fbSourceGraphic" />
      <feColorMatrix
         id="mask-powermask-path-effect7675_primitive2"
         values="-1 0 0 0 1 0 -1 0 0 1 0 0 -1 0 1 0 0 0 1 0 "
         in="fbSourceGraphic" />
    </filter>
    <filter
       id="mask-powermask-path-effect7680_inverse"
       inkscape:label="filtermask-powermask-path-effect7680"
       style="color-interpolation-filters:sRGB"
       height="100"
       width="100"
       x="-50"
       y="-50">
      <feColorMatrix
         id="mask-powermask-path-effect7680_primitive1"
         values="1"
         type="saturate"
         result="fbSourceGraphic" />
      <feColorMatrix
         id="mask-powermask-path-effect7680_primitive2"
         values="-1 0 0 0 1 0 -1 0 0 1 0 0 -1 0 1 0 0 0 1 0 "
         in="fbSourceGraphic" />
    </filter>
    <filter
       id="mask-powermask-path-effect7685_inverse"
       inkscape:label="filtermask-powermask-path-effect7685"
       style="color-interpolation-filters:sRGB"
       height="100"
       width="100"
       x="-50"
       y="-50">
      <feColorMatrix
         id="mask-powermask-path-effect7685_primitive1"
         values="1"
         type="saturate"
         result="fbSourceGraphic" />
      <feColorMatrix
         id="mask-powermask-path-effect7685_primitive2"
         values="-1 0 0 0 1 0 -1 0 0 1 0 0 -1 0 1 0 0 0 1 0 "
         in="fbSourceGraphic" />
    </filter>
    <filter
       id="mask-powermask-path-effect7690_inverse"
       inkscape:label="filtermask-powermask-path-effect7690"
       style="color-interpolation-filters:sRGB"
       height="100"
       width="100"
       x="-50"
       y="-50">
      <feColorMatrix
         id="mask-powermask-path-effect7690_primitive1"
         values="1"
         type="saturate"
         result="fbSourceGraphic" />
      <feColorMatrix
         id="mask-powermask-path-effect7690_primitive2"
         values="-1 0 0 0 1 0 -1 0 0 1 0 0 -1 0 1 0 0 0 1 0 "
         in="fbSourceGraphic" />
    </filter>
    <filter
       id="mask-powermask-path-effect7695_inverse"
       inkscape:label="filtermask-powermask-path-effect7695"
       style="color-interpolation-filters:sRGB"
       height="100"
       width="100"
       x="-50"
       y="-50">
      <feColorMatrix
         id="mask-powermask-path-effect7695_primitive1"
         values="1"
         type="saturate"
         result="fbSourceGraphic" />
      <feColorMatrix
         id="mask-powermask-path-effect7695_primitive2"
         values="-1 0 0 0 1 0 -1 0 0 1 0 0 -1 0 1 0 0 0 1 0 "
         in="fbSourceGraphic" />
    </filter>
    <filter
       id="mask-powermask-path-effect7700_inverse"
       inkscape:label="filtermask-powermask-path-effect7700"
       style="color-interpolation-filters:sRGB"
       height="100"
       width="100"
       x="-50"
       y="-50">
      <feColorMatrix
         id="mask-powermask-path-effect7700_primitive1"
         values="1"
         type="saturate"
         result="fbSourceGraphic" />
      <feColorMatrix
         id="mask-powermask-path-effect7700_primitive2"
         values="-1 0 0 0 1 0 -1 0 0 1 0 0 -1 0 1 0 0 0 1 0 "
         in="fbSourceGraphic" />
    </filter>
    <filter
       id="mask-powermask-path-effect7705_inverse"
       inkscape:label="filtermask-powermask-path-effect7705"
       style="color-interpolation-filters:sRGB"
       height="100"
       width="100"
       x="-50"
       y="-50">
      <feColorMatrix
         id="mask-powermask-path-effect7705_primitive1"
         values="1"
         type="saturate"
         result="fbSourceGraphic" />
      <feColorMatrix
         id="mask-powermask-path-effect7705_primitive2"
         values="-1 0 0 0 1 0 -1 0 0 1 0 0 -1 0 1 0 0 0 1 0 "
         in="fbSourceGraphic" />
    </filter>
    <filter
       id="mask-powermask-path-effect7710_inverse"
       inkscape:label="filtermask-powermask-path-effect7710"
       style="color-interpolation-filters:sRGB"
       height="100"
       width="100"
       x="-50"
       y="-50">
      <feColorMatrix
         id="mask-powermask-path-effect7710_primitive1"
         values="1"
         type="saturate"
         result="fbSourceGraphic" />
      <feColorMatrix
         id="mask-powermask-path-effect7710_primitive2"
         values="-1 0 0 0 1 0 -1 0 0 1 0 0 -1 0 1 0 0 0 1 0 "
         in="fbSourceGraphic" />
    </filter>
    <filter
       id="mask-powermask-path-effect7715_inverse"
       inkscape:label="filtermask-powermask-path-effect7715"
       style="color-interpolation-filters:sRGB"
       height="100"
       width="100"
       x="-50"
       y="-50">
      <feColorMatrix
         id="mask-powermask-path-effect7715_primitive1"
         values="1"
         type="saturate"
         result="fbSourceGraphic" />
      <feColorMatrix
         id="mask-powermask-path-effect7715_primitive2"
         values="-1 0 0 0 1 0 -1 0 0 1 0 0 -1 0 1 0 0 0 1 0 "
         in="fbSourceGraphic" />
    </filter>
    <filter
       id="mask-powermask-path-effect7720_inverse"
       inkscape:label="filtermask-powermask-path-effect7720"
       style="color-interpolation-filters:sRGB"
       height="100"
       width="100"
       x="-50"
       y="-50">
      <feColorMatrix
         id="mask-powermask-path-effect7720_primitive1"
         values="1"
         type="saturate"
         result="fbSourceGraphic" />
      <feColorMatrix
         id="mask-powermask-path-effect7720_primitive2"
         values="-1 0 0 0 1 0 -1 0 0 1 0 0 -1 0 1 0 0 0 1 0 "
         in="fbSourceGraphic" />
    </filter>
    <filter
       id="mask-powermask-path-effect7725_inverse"
       inkscape:label="filtermask-powermask-path-effect7725"
       style="color-interpolation-filters:sRGB"
       height="100"
       width="100"
       x="-50"
       y="-50">
      <feColorMatrix
         id="mask-powermask-path-effect7725_primitive1"
         values="1"
         type="saturate"
         result="fbSourceGraphic" />
      <feColorMatrix
         id="mask-powermask-path-effect7725_primitive2"
         values="-1 0 0 0 1 0 -1 0 0 1 0 0 -1 0 1 0 0 0 1 0 "
         in="fbSourceGraphic" />
    </filter>
  </defs>
  <path
     style="fill:none;stroke:#ffffff;stroke-width:2.4;stroke-linecap:butt;stroke-linejoin:miter;stroke-dasharray:none;stroke-opacity:1"
     d="m 125.25124,5.473522 12.62988,9.30145"
     id="path7767" />
  <path
     style="fill:none;stroke:#ffffff;stroke-width:2.4;stroke-linecap:butt;stroke-linejoin:miter;stroke-dasharray:none;stroke-opacity:1"
     d="m 2.9318771,129.13586 9.3014399,12.62988"
     id="path7767-7" />
  <path
     style="fill:none;stroke:#ffffff;stroke-width:2.4;stroke-linecap:butt;stroke-linejoin:miter;stroke-dasharray:none;stroke-opacity:1"
     d="m 207.76746,78.235157 9.30144,12.62988"
     id="path7767-7-9" />
  <g
     id="g7775"
     transform="translate(-43.153712,199.75816)">
    <path
       style="fill:none;stroke:#ffffff;stroke-width:2.4;stroke-linecap:butt;stroke-linejoin:miter;stroke-dasharray:none;stroke-opacity:1"
       d="m 125.27325,5.466912 12.62988,9.30145"
       id="path7767-2" />
  </g>
</svg>
