<?xml version="1.0" encoding="UTF-8" standalone="no"?>
<!-- Generator: Adobe Illustrator 27.9.0, SVG Export Plug-In . SVG Version: 6.00 Build 0)  -->

<svg
   version="1.1"
   id="Layer_1"
   x="0px"
   y="0px"
   viewBox="0 0 1200 1200"
   xml:space="preserve"
   sodipodi:docname="DataProtection.svg"
   width="1200"
   height="1200"
   inkscape:version="1.2.2 (b0a8486, 2022-12-01)"
   inkscape:export-filename="DataProtection.png"
   inkscape:export-xdpi="80"
   inkscape:export-ydpi="80"
   xmlns:inkscape="http://www.inkscape.org/namespaces/inkscape"
   xmlns:sodipodi="http://sodipodi.sourceforge.net/DTD/sodipodi-0.dtd"
   xmlns="http://www.w3.org/2000/svg"
   xmlns:svg="http://www.w3.org/2000/svg"><defs
   id="defs2595" /><sodipodi:namedview
   id="namedview2593"
   pagecolor="#000000"
   bordercolor="#666666"
   borderopacity="1.0"
   inkscape:showpageshadow="2"
   inkscape:pageopacity="0"
   inkscape:pagecheckerboard="0"
   inkscape:deskcolor="#d1d1d1"
   showgrid="false"
   inkscape:zoom="0.41725138"
   inkscape:cx="529.65673"
   inkscape:cy="780.10527"
   inkscape:window-width="1920"
   inkscape:window-height="1027"
   inkscape:window-x="0"
   inkscape:window-y="25"
   inkscape:window-maximized="1"
   inkscape:current-layer="Layer_1" />
<style
   type="text/css"
   id="style2582">
	.st0{fill:#221F72;}
	.st1{fill:#FFFFFF;}
	.st2{fill:#D80B8C;}
</style>


<g
   id="g3081"
   transform="matrix(1.2700239,0,0,1.2696841,-192.36792,-194.21322)"
   style="stroke-width:0.787492"><g
     id="g2586"
     transform="matrix(0.77048023,0,0,0.77048023,143.19739,143.51871)"
     style="stroke:#ffffff;stroke-width:10.2209;stroke-dasharray:none">
	<path
   class="st0"
   d="m 1121.6,176.6 c 0,0 -186.9,-151.3 -497.7,-151.3 -310.8,0 -497.7,151.3 -497.7,151.3 0,0 -6.3,334.3 6.5,563 14.1,253.8 491.2,485.7 491.2,485.7 0,0 477.1,-232 491.2,-485.7 12.8,-228.7 6.5,-563 6.5,-563 z"
   id="path2584"
   style="stroke:#ffffff;stroke-width:10.2209;stroke-dasharray:none" />
</g><path
     class="st1"
     d="M 930.78228,709.35939 C 924.92663,814.52994 738.47042,944.7411 623.97705,1006.8418 509.48369,944.7411 323.02748,814.52994 317.17183,709.35939 c -7.39661,-132.3685 -6.31794,-314.12479 -5.39337,-391.40396 47.61568,-28.73891 158.10255,-83.21186 312.19859,-83.21186 155.9452,0 265.12225,54.08771 312.19859,82.90367 0.84753,77.04802 1.9262,259.18955 -5.39336,391.71215 z"
     id="path2588"
     style="stroke-width:0.787491" /><path
     class="st2"
     d="m 716.89697,501.94611 c 47.69273,-6.16384 97.00346,-19.10791 129.28658,-73.19562 2.92783,-5.7786 2.69668,-12.78997 -0.53933,-18.33743 -3.31307,-5.6245 -9.24577,-9.24576 -15.79485,-9.32281 -6.54908,-0.23114 -12.71292,2.85078 -16.41123,8.16709 -3.62126,5.9327 -7.5507,11.5572 -12.17359,16.79647 L 689.54492,359.56137 c 2.46554,-6.54909 5.39336,-12.71293 8.93757,-18.72267 2.92783,-5.7786 2.69668,-12.78997 -0.53933,-18.33743 -3.31307,-5.62451 -9.24577,-9.24577 -15.79485,-9.32281 -6.54908,-0.23115 -12.71292,2.85077 -16.41123,8.16709 -32.43722,53.93361 -20.10953,103.55254 -2.92782,148.39449 -47.69273,6.16384 -97.00346,19.10791 -129.20954,73.27267 -32.20607,54.08771 -20.10953,103.55254 -2.92782,148.39449 -47.53863,6.31794 -97.00346,19.10791 -129.20954,73.27267 -2.92782,5.7786 -2.69668,12.78997 0.53934,18.33743 3.31306,5.62451 9.24576,9.24576 15.79484,9.32281 6.54909,0.23115 12.71293,-2.85078 16.41123,-8.16709 3.62126,-5.9327 7.55071,-11.5572 12.17359,-16.79647 L 558.02395,833.869 c -2.46554,6.54908 -5.39337,12.71292 -8.93757,18.72267 -2.92783,5.7786 -2.69669,12.78997 0.53933,18.33743 3.31307,5.6245 9.24576,9.24576 15.79485,9.32281 6.54908,0.23114 12.71292,-2.85078 16.41122,-8.16709 32.20608,-54.08772 20.10954,-103.55255 2.85078,-148.54859 47.69273,-6.16384 97.00346,-19.10791 129.20954,-73.27267 32.36017,-54.01067 20.34067,-103.4755 3.00487,-148.31745 z M 545.69626,727.85092 c 11.78835,29.35529 21.11116,56.55325 17.56695,84.67577 L 462.79259,752.66038 c 23.19145,-16.33418 51.39103,-20.95706 82.90367,-24.80946 z m 24.34718,-40.83546 c -8.32119,-18.95381 -14.25389,-38.8322 -17.41286,-59.17288 l 77.81851,46.38291 c -19.5702,6.78023 -39.75678,11.09492 -60.40565,12.78997 z m -17.72105,-83.443 c 1.15572,-11.01787 4.39174,-21.8046 9.24576,-31.82084 l 114.18517,68.03341 c -6.54908,8.93757 -14.63912,16.79647 -23.80783,23.03736 z m 19.87839,-49.69598 c 6.54908,-8.93757 14.48503,-16.95056 23.5767,-23.19145 l 99.3149,59.17288 c -1.15572,11.17196 -4.08355,21.88164 -8.93757,31.89788 L 571.96964,553.72238 Z m 45.15014,-34.59456 c 19.49315,-6.78023 39.75678,-11.17197 60.32861,-12.78997 8.32118,18.95381 14.25388,38.8322 17.41285,59.17288 l -78.04965,-46.53701 z m 167.50241,-78.74308 c -23.03736,16.56532 -51.39104,21.03411 -82.82663,24.88651 -11.78835,-29.3553 -21.11116,-56.55325 -17.56695,-84.67578 z"
     id="path2590"
     style="stroke-width:0.787491" /></g>
</svg>
