<?xml version="1.0" encoding="UTF-8" standalone="no"?>
<!-- Generator: Adobe Illustrator 27.9.0, SVG Export Plug-In . SVG Version: 6.00 Build 0)  -->

<svg
   version="1.1"
   id="Layer_1"
   x="0px"
   y="0px"
   viewBox="0 0 1200 1200"
   style="enable-background:new 0 0 1200 1200;"
   xml:space="preserve"
   sodipodi:docname="DrugReaction.svg"
   inkscape:version="1.2.2 (b0a8486, 2022-12-01)"
   inkscape:export-filename="DrugReaction.png"
   inkscape:export-xdpi="80"
   inkscape:export-ydpi="80"
   xmlns:inkscape="http://www.inkscape.org/namespaces/inkscape"
   xmlns:sodipodi="http://sodipodi.sourceforge.net/DTD/sodipodi-0.dtd"
   xmlns="http://www.w3.org/2000/svg"
   xmlns:svg="http://www.w3.org/2000/svg"><defs
   id="defs167" /><sodipodi:namedview
   id="namedview165"
   pagecolor="#000000"
   bordercolor="#666666"
   borderopacity="1.0"
   inkscape:showpageshadow="2"
   inkscape:pageopacity="0"
   inkscape:pagecheckerboard="0"
   inkscape:deskcolor="#d1d1d1"
   showgrid="false"
   inkscape:zoom="0.41773331"
   inkscape:cx="768.43285"
   inkscape:cy="470.39581"
   inkscape:window-width="1920"
   inkscape:window-height="1027"
   inkscape:window-x="0"
   inkscape:window-y="25"
   inkscape:window-maximized="1"
   inkscape:current-layer="g1635" />
<style
   type="text/css"
   id="style132">
	.st0{fill:#FFFFFF;}
	.st1{fill:#221F72;}
	.st2{fill:#00AEEF;}
</style>
<g
   id="g162"
   transform="translate(0,321.2)">
	
	
	
	
	
	
	<g
   id="g1635"
   transform="translate(3.1968871,1.3944184)"><g
     id="g1005"
     transform="translate(0.25044911)"
     inkscape:export-filename="./DrugReaction.png"
     inkscape:export-xdpi="182.59"
     inkscape:export-ydpi="182.59"><g
       id="g1615"
       transform="matrix(1.0507716,0,0,1.0513587,-36.158506,-15.713224)"
       style="stroke-width:0.951419"><path
         class="st1"
         d="m 1127.6,73.4 -1.9,-1.9 C 1078.2,24 1000.4,24 952.9,71.5 l -240,239.9 c -47.5,47.5 -47.5,125.3 0,172.8 l 1.9,1.9 c 47.5,47.5 125.3,47.5 172.8,0 l 240,-240 c 47.5,-47.5 47.5,-125.2 0,-172.7 z"
         id="path152-5-7"
         style="fill:#ffffff;stroke:#ffffff;stroke-width:14.2712;stroke-dasharray:none" /><g
         id="g150"
         style="stroke-width:0.951419">
		<path
   class="st1"
   d="m 1127.6,73.4 -1.9,-1.9 C 1078.2,24 1000.4,24 952.9,71.5 l -240,239.9 c -47.5,47.5 -47.5,125.3 0,172.8 l 1.9,1.9 c 47.5,47.5 125.3,47.5 172.8,0 l 240,-240 c 47.5,-47.5 47.5,-125.2 0,-172.7 z"
   id="path138"
   style="stroke-width:0.951419" />
		<path
   d="m 1106.9,94.1 c 2.3,2.3 4.4,4.7 6.4,7.1 -2.1,-2.5 -4.2,-4.9 -6.4,-7.1 z"
   id="path140"
   style="stroke-width:0.951419" />
		<path
   d="m 1104.9,92.2 v 0 c -2.2,-2.2 -4.7,-4.4 -7.1,-6.4 2.5,2 4.9,4.1 7.1,6.4 z"
   id="path142"
   style="stroke-width:0.951419" />
		<path
   class="st0"
   d="m 866.9,465.4 c -36.2,36.2 -95.1,36.2 -131.3,0 l -1.9,-1.9 c -36.2,-36.2 -36.2,-95.1 0,-131.3 l 120,-120 v 0 c 31.6,-31.6 58.3,-58.3 78.7,-78.7 l 30.2,-30.2 c 36.9,-36.9 94.1,-41.9 136.5,-15 -41.5,-13.5 -89,-4 -121.9,28.8 L 944.4,150 c -20,20 -45.5,45.5 -76.4,76.4 l 119,119 z"
   id="path144"
   style="stroke-width:0.951419" />
		<path
   class="st2"
   d="M 874.2,409.7 847,436.9 c -27.2,27.2 -66.5,35.1 -100.9,23.9 35.1,22.2 82.4,18.1 113,-12.4 l 25,-25 c 17.7,-17.7 41,-41 68.8,-68.8 l -11.8,-11.8 c -27.2,27.3 -49.6,49.6 -66.9,66.9 z"
   id="path146"
   style="stroke-width:0.951419" />
		<path
   class="st0"
   d="m 1085.2,365.7 c -43.1,0 -78,34.9 -78,78 0,43.1 34.9,78 78,78 43.1,0 78,-34.9 78,-78 0,-43.1 -34.9,-78 -78,-78 z m 53.2,109.3 -21.8,21.8 -31.9,-31.9 -31.9,31.9 -20.7,-20.7 31.9,-31.9 -31.9,-31.9 21.8,-21.8 31.9,31.9 31.9,-31.9 20.7,20.7 -31.9,31.9 z"
   id="path148"
   style="stroke-width:0.951419" />
	</g></g><g
       id="g1605"
       transform="matrix(1.0507716,0,0,1.0513587,-31.659296,-15.713224)"
       style="stroke-width:0.951419"><path
         class="st1"
         d="m 487.1,73.4 -1.9,-1.9 C 437.7,24 359.9,24 312.4,71.5 l -240,239.9 c -47.5,47.5 -47.5,125.3 0,172.8 l 1.9,1.9 c 47.5,47.5 125.3,47.5 172.8,0 l 240,-240 c 47.5,-47.5 47.5,-125.2 0,-172.7 z"
         id="path152-5"
         style="fill:#ffffff;stroke:#ffffff;stroke-width:14.2712;stroke-dasharray:none" /><g
         id="g136"
         style="stroke-width:0.951419">
		<path
   class="st0"
   d="m 444.7,365.7 c -43.1,0 -78,34.9 -78,78 0,43.1 34.9,78 78,78 43.1,0 78,-34.9 78,-78 0,-43.1 -34.9,-78 -78,-78 z m 47.9,62.5 -57.9,57.9 c -0.5,0.5 -1.1,0.7 -1.7,0.7 -0.7,0 -1.3,-0.3 -1.7,-0.7 l -34.5,-34.6 c -0.5,-0.5 -0.7,-1.1 -0.7,-1.7 0,-0.6 0.3,-1.3 0.7,-1.7 l 12,-12 c 0.5,-0.5 1.1,-0.7 1.7,-0.7 v 0 c 0.6,0 1.3,0.3 1.7,0.7 l 20.7,20.8 44.2,-44.2 c 1,-1 2.5,-1 3.4,0 l 12,12 c 0.5,0.5 0.7,1.1 0.7,1.7 0.1,0.8 -0.2,1.4 -0.6,1.8 z"
   id="path134"
   style="stroke-width:0.951419" />
	</g><path
         class="st1"
         d="m 487.1,73.4 -1.9,-1.9 C 437.7,24 359.9,24 312.4,71.5 l -240,239.9 c -47.5,47.5 -47.5,125.3 0,172.8 l 1.9,1.9 c 47.5,47.5 125.3,47.5 172.8,0 l 240,-240 c 47.5,-47.5 47.5,-125.2 0,-172.7 z"
         id="path152"
         style="stroke-width:0.951419" /><path
         d="m 466.3,94.1 c 2.3,2.3 4.4,4.7 6.4,7.1 -2.1,-2.5 -4.2,-4.9 -6.5,-7.2 z"
         id="path154"
         style="stroke-width:0.951419" /><path
         d="m 464.4,92.2 v 0 c -2.2,-2.2 -4.7,-4.4 -7.1,-6.4 2.4,2 4.8,4.1 7.1,6.4 z"
         id="path156"
         style="stroke-width:0.951419" /><path
         class="st0"
         d="m 226.4,465.4 c -36.2,36.2 -95.1,36.2 -131.3,0 l -1.9,-1.9 C 57,427.3 57,368.4 93.2,332.2 l 120,-120 v 0 c 31.6,-31.6 58.3,-58.3 78.7,-78.7 l 30.2,-30.2 c 36.9,-36.9 94.1,-41.9 136.5,-15 -41.5,-13.5 -89,-4 -121.9,28.8 L 303.8,150 c -20,20 -45.5,45.5 -76.4,76.4 l 119,119 z"
         id="path158"
         style="stroke-width:0.951419" /><path
         class="st2"
         d="m 233.7,409.7 -27.2,27.2 c -27.2,27.2 -66.5,35.1 -100.9,23.9 35.1,22.2 82.4,18.1 113,-12.4 l 25,-25 c 17.7,-17.7 41,-41 68.8,-68.8 l -11.8,-11.8 c -27.3,27.3 -49.6,49.6 -66.9,66.9 z"
         id="path160"
         style="stroke-width:0.951419" /></g></g></g>
</g>
</svg>
