<?xml version="1.0" encoding="UTF-8" standalone="no"?>
<!-- Generator: Adobe Illustrator 27.9.0, SVG Export Plug-In . SVG Version: 6.00 Build 0)  -->

<svg
   version="1.1"
   id="Layer_1"
   x="0px"
   y="0px"
   viewBox="0 0 1200 1200"
   style="enable-background:new 0 0 1200 1200;"
   xml:space="preserve"
   sodipodi:docname="GenomePower.svg"
   inkscape:export-filename="GenomePower.png"
   inkscape:export-xdpi="80"
   inkscape:export-ydpi="80"
   inkscape:version="1.2.2 (b0a8486, 2022-12-01)"
   xmlns:inkscape="http://www.inkscape.org/namespaces/inkscape"
   xmlns:sodipodi="http://sodipodi.sourceforge.net/DTD/sodipodi-0.dtd"
   xmlns="http://www.w3.org/2000/svg"
   xmlns:svg="http://www.w3.org/2000/svg"><defs
   id="defs1233" /><sodipodi:namedview
   id="namedview1231"
   pagecolor="#000000"
   bordercolor="#666666"
   borderopacity="1.0"
   inkscape:showpageshadow="2"
   inkscape:pageopacity="0"
   inkscape:pagecheckerboard="0"
   inkscape:deskcolor="#d1d1d1"
   showgrid="false"
   inkscape:zoom="0.6797392"
   inkscape:cx="553.8889"
   inkscape:cy="567.12928"
   inkscape:window-width="1920"
   inkscape:window-height="1027"
   inkscape:window-x="0"
   inkscape:window-y="25"
   inkscape:window-maximized="1"
   inkscape:current-layer="g1838" />
<style
   type="text/css"
   id="style1210">
	.st0{fill:#FFFFFF;}
	.st1{fill:#00AEEF;}
	.st2{fill:#D80B8C;}
	.st3{display:none;fill:#FFFFFF;}
</style>





<g
   id="g1361"
   transform="translate(-21.434429,28.8839)"><g
     id="g1838"
     transform="translate(16.452909)"><g
       id="g1826"
       transform="translate(0,4.85261)" /><g
       id="g1745"
       transform="matrix(1.3165612,0,0,1.3165612,-191.51368,-180.7932)"
       inkscape:export-filename="./GenomePower.png"
       inkscape:export-xdpi="161.14"
       inkscape:export-ydpi="161.14"><path
         class="st0"
         d="m 916.7,464.36049 c -77.9464,0 -141.05,30.41631 -141.05,67.93535 v 67.9353 c 0,37.51902 63.1904,67.93535 141.05,67.93535 77.94637,0 141.05,-30.41633 141.05,-67.93535 v -67.9353 c 0.087,-37.51904 -63.10363,-67.93535 -141.05,-67.93535 z"
         id="path1212"
         style="stroke-width:1"
         transform="translate(0,4.85261)" /><path
         class="st1"
         d="m 858.95,483.7661 98.9,98.9 c -10.4,1.2 -21.5,1.9 -33.1,1.9 -82.7,0 -135.5,-32.1 -135.5,-54.2 0,-15.4 25.9,-35.8 69.7,-46.6 z"
         id="path1214"
         transform="translate(0,4.85261)" /><path
         class="st1"
         d="m 1044.25,599.6661 c 0,22.1 -49.70214,54.2 -127.55,54.2 -77.84786,0 -127.55,-32.1 -127.55,-54.2 v -36.4 c 27.39265,21.9 74.27081,36.4 127.55,36.4 53.27919,0 100.0632,-14.5 127.55,-36.4 z"
         id="path1216"
         style="stroke-width:0.999997"
         transform="translate(0,4.85261)" /><path
         class="st1"
         d="m 974.45,578.9661 -98.9,-98.9 c 10.4,-1.2 21.5,-1.9 33.2,-1.9 82.7,0 135.5,32.1 135.5,54.2 -0.1,15.5 -26,35.8 -69.8,46.6 z"
         id="path1218"
         transform="translate(0,4.85261)" /><g
         id="g1224"
         transform="translate(5.45,177.9661)">
	<path
   class="st2"
   d="m 281.5,615.9 c -0.2,0 -0.4,0 -0.6,0 -5.6,-0.1 -10.6,-3.1 -13.5,-8 -2.8,-4.8 -3,-10.8 -0.4,-15.7 2.6,-4.3 4.7,-8.7 6.5,-13.3 l -84.9,-50.6 c -3,3.5 -5.8,7.4 -8.5,11.9 -3.1,4.5 -8.1,7.1 -13.5,7.1 -0.2,0 -0.4,0 -0.6,0 -5.6,-0.1 -10.6,-3.1 -13.5,-8 -2.8,-4.8 -3,-10.8 -0.4,-15.7 24.8,-41.8 62.6,-52.6 100.1,-57.8 -13.3,-35.2 -21.8,-73.6 3.1,-115.3 24.9,-41.9 62.6,-52.7 100,-57.7 -13.4,-35.4 -21.9,-73.8 3.1,-115.3 3.1,-4.5 8.1,-7.1 13.5,-7.1 0.2,0 0.4,0 0.6,0 5.6,0.1 10.6,3.1 13.5,8 2.8,4.8 3,10.8 0.4,15.7 -2.6,4.3 -4.7,8.7 -6.5,13.3 l 85,50.6 c 3,-3.5 5.8,-7.4 8.5,-11.9 3.1,-4.5 8.1,-7.1 13.5,-7.1 0.2,0 0.4,0 0.6,0 5.6,0.1 10.6,3.1 13.5,8 2.8,4.8 3,10.8 0.4,15.7 -25,41.9 -62.8,52.7 -100.2,57.7 13.4,35.2 21.9,73.5 -3.2,115.3 -24.9,41.9 -62.6,52.7 -100,57.7 13.4,35.3 21.9,73.6 -3,115.4 l -0.1,0.1 c -3,4.4 -8,7 -13.4,7 z M 278,559 c 2,-20.9 -5.1,-41.3 -13.4,-62 -23.1,2.8 -43.7,6.3 -61,17.7 z m -5.1,-138.8 c 2.5,14.2 6.7,28.2 12.5,41.7 14.4,-1.2 28.7,-4.2 42.6,-8.8 z m 75.4,22.7 c 6.3,-4.4 11.8,-9.7 16.5,-15.8 l -86.3,-51.4 c -3.3,7.1 -5.4,14.4 -6.2,21.9 z m 26.1,-32.4 c 3.1,-6.8 5.2,-14.2 6.1,-22 l -75.8,-45.2 c -6.1,4.3 -11.5,9.7 -16.3,15.9 z m 5.7,-44.6 c -2.5,-14.2 -6.7,-28.2 -12.5,-41.7 -14.4,1.2 -28.7,4.2 -42.6,8.8 z M 375,227 c -2,20.9 5.1,41.3 13.4,62 23.2,-2.9 43.9,-6.3 60.9,-17.7 z"
   id="path1220"
   style="stroke:#ffffff;stroke-width:7;stroke-dasharray:none" />
	<path
   class="st3"
   d="m 371.5,171.8 c 0.2,0 0.4,0 0.6,0 5.1,0.1 9.7,2.9 12.3,7.3 2.5,4.3 2.7,9.8 0.4,14.3 -2.8,4.7 -5.1,9.5 -7,14.6 l 87.2,51.9 c 3.6,-4.1 6.7,-8.5 9.5,-13.1 2.8,-4 7.3,-6.4 12.2,-6.4 0.2,0 0.4,0 0.6,0 5.1,0.1 9.7,2.9 12.3,7.3 2.5,4.3 2.7,9.8 0.4,14.3 -25.2,42.2 -63.7,52.3 -100.9,57.1 13.5,35 22.9,73.6 -2.4,115.8 -25.1,42.3 -63.6,52.4 -100.8,57.2 13.5,35.1 22.9,73.7 -2.2,115.9 -2.8,4 -7.3,6.4 -12.2,6.4 -0.2,0 -0.4,0 -0.6,0 -5.1,-0.1 -9.7,-2.9 -12.3,-7.3 -2.5,-4.3 -2.7,-9.8 -0.4,-14.3 2.8,-4.7 5.1,-9.5 7,-14.6 l -87.1,-51.9 c -3.6,4.1 -6.7,8.5 -9.5,13.1 -2.8,4 -7.3,6.4 -12.2,6.4 -0.2,0 -0.4,0 -0.6,0 -5.1,-0.1 -9.7,-2.9 -12.3,-7.3 -2.5,-4.3 -2.7,-9.8 -0.4,-14.3 25.1,-42.3 63.7,-52.3 100.8,-57.2 -13.4,-35 -22.8,-73.6 2.3,-115.8 25.1,-42.3 63.6,-52.4 100.8,-57.2 -13.4,-35 -23,-73.7 2.3,-115.8 2.8,-4 7.3,-6.4 12.2,-6.4 m 16,118.8 c 24.5,-3 46.6,-6.5 64.6,-19.4 l -78.3,-46.7 c -2.8,22 4.5,43.2 13.7,66.1 m -66.1,42 -0.2,-0.1 60.9,36.3 c -2.5,-15.9 -7.1,-31.4 -13.6,-46.2 -16.1,1.3 -31.9,4.7 -47.1,10 m -35.2,27 -0.2,-0.1 89.1,53.1 c 3.8,-7.8 6.1,-16.2 7,-24.9 l -77.5,-46.2 c -7.1,4.9 -13.3,11.1 -18.4,18.1 m 62.2,85.1 c 7.2,-4.9 13.5,-11 18.6,-18 l -89.1,-53.1 c -3.8,7.8 -6.3,16.2 -7.2,24.8 l 77.7,46.3 m -63.9,18.8 c 16.1,-1.3 31.9,-4.7 47.1,-10 l -60.7,-36.2 c 2.5,15.9 7.1,31.4 13.6,46.2 m -5.3,98 c 2.8,-22 -4.5,-43.2 -13.7,-66.1 -24.6,3 -46.6,6.6 -64.7,19.4 l 78.4,46.7 m 92.3,-392.7 v 0 c -5.9,0 -11.3,2.9 -14.7,7.7 l -0.1,0.1 v 0.1 c -24.9,41.4 -17,79.6 -3.9,114.9 -37.1,5.2 -74.5,16.4 -99.2,58.1 -24.8,41.6 -16.9,79.8 -3.9,114.9 -37.2,5.3 -74.6,16.6 -99.2,58.1 v 0.1 0.1 c -2.7,5.4 -2.6,11.9 0.5,17.2 3.2,5.4 8.7,8.7 14.8,8.8 0.2,0 0.5,0 0.7,0 5.9,0 11.3,-2.9 14.7,-7.7 v -0.1 -0.1 c 2.5,-4 5,-7.6 7.6,-10.8 l 82.7,49.3 c -1.7,4.1 -3.6,8 -5.9,11.8 v 0.1 0.1 c -2.7,5.4 -2.6,11.9 0.5,17.2 3.2,5.4 8.7,8.7 14.8,8.8 0.2,0 0.5,0 0.7,0 5.9,0 11.3,-2.9 14.7,-7.7 l 0.1,-0.1 0.1,-0.1 c 24.8,-41.7 16.9,-79.8 3.8,-115 37.1,-5.2 74.5,-16.4 99.2,-58.1 25,-41.7 17.1,-79.8 4,-114.9 37.1,-5.2 74.4,-16.4 99.3,-58 l 0.1,-0.1 v -0.1 c 2.7,-5.4 2.6,-11.9 -0.5,-17.2 -3.2,-5.4 -8.7,-8.7 -14.8,-8.8 -0.2,0 -0.5,0 -0.7,0 -5.9,0 -11.3,2.9 -14.7,7.7 v 0.1 0.1 c -2.5,4 -5,7.6 -7.6,10.8 l -82.8,-49.3 c 1.7,-4.1 3.6,-8 5.9,-11.8 v -0.1 -0.1 c 2.7,-5.4 2.6,-11.9 -0.5,-17.2 -3.2,-5.4 -8.7,-8.7 -14.8,-8.8 -0.4,0 -0.7,0 -0.9,0 z m 17.9,118.5 c -7.7,-19.4 -14.3,-38.4 -13.1,-57.8 l 70.1,41.8 c -16,10 -35.3,13.3 -57,16 z m -60.8,46.1 c 12.5,-3.9 25.2,-6.4 38,-7.6 5.1,12 9,24.5 11.4,37.1 z m -38,25.4 c 4.2,-5.3 8.9,-9.9 14.1,-13.7 l 74.2,44.2 c -0.9,6.7 -2.6,13.1 -5.1,19 z m -16.7,38 c 0.9,-6.4 2.6,-12.8 5.3,-18.9 l 83.3,49.7 c -4.1,5.2 -8.9,9.7 -14.3,13.6 z m 12.5,63.5 c -5.1,-12 -9,-24.5 -11.4,-37.1 l 49.4,29.5 c -12.4,3.9 -25.2,6.4 -38,7.6 z m -80,54.4 c 16.3,-10 35.6,-13.3 57.1,-16 7.7,19.4 14.3,38.4 13.1,57.8 z"
   id="path1222" />
</g><g
         id="g1228"
         transform="translate(5.45,177.9661)">
	<path
   class="st0"
   d="m 673.2,393 -46.5,52.3 c -1.7,1.9 -3.6,3.3 -5.8,4.3 -2.2,1 -4.4,1.5 -6.8,1.5 -4.6,0 -8.4,-1.5 -11.5,-4.5 -3.1,-3 -4.7,-6.7 -4.7,-11.1 0,-2.4 0.5,-4.7 1.4,-6.9 0.9,-2.2 2.3,-4.2 4,-5.9 L 616,410 h -83.2 c -4.7,0 -8.7,-1.6 -12,-4.9 -3.3,-3.2 -4.9,-7.3 -4.9,-12.1 0,-4.7 1.6,-8.7 4.9,-12 3.3,-3.3 7.3,-4.9 12,-4.9 H 616 l -12.7,-14.6 c -1.8,-1.9 -3.1,-3.9 -4,-6 -0.9,-2.1 -1.3,-4.1 -1.3,-6.2 0,-3.9 1.6,-7.3 4.8,-10.1 3.2,-2.8 7,-4.3 11.4,-4.3 2.5,0 4.8,0.5 7,1.5 2.2,1 4.1,2.4 5.6,4.2 z"
   id="path1226" />
</g></g></g></g>
</svg>
