<?xml version="1.0" encoding="UTF-8" standalone="no"?>
<!-- Generator: Adobe Illustrator 27.9.0, SVG Export Plug-In . SVG Version: 6.00 Build 0)  -->

<svg
   version="1.1"
   id="Layer_1"
   x="0px"
   y="0px"
   viewBox="0 0 1200 1200"
   style="enable-background:new 0 0 1200 1200;"
   xml:space="preserve"
   sodipodi:docname="Tailored.svg"
   inkscape:version="1.2.2 (b0a8486, 2022-12-01)"
   inkscape:export-filename="Tailored.png"
   inkscape:export-xdpi="80"
   inkscape:export-ydpi="80"
   xmlns:inkscape="http://www.inkscape.org/namespaces/inkscape"
   xmlns:sodipodi="http://sodipodi.sourceforge.net/DTD/sodipodi-0.dtd"
   xmlns="http://www.w3.org/2000/svg"
   xmlns:svg="http://www.w3.org/2000/svg"><defs
   id="defs829" /><sodipodi:namedview
   id="namedview827"
   pagecolor="#000000"
   bordercolor="#666666"
   borderopacity="1.0"
   inkscape:showpageshadow="2"
   inkscape:pageopacity="0"
   inkscape:pagecheckerboard="0"
   inkscape:deskcolor="#d1d1d1"
   showgrid="false"
   inkscape:zoom="0.57765541"
   inkscape:cx="515.87849"
   inkscape:cy="630.99902"
   inkscape:window-width="1920"
   inkscape:window-height="1027"
   inkscape:window-x="0"
   inkscape:window-y="25"
   inkscape:window-maximized="1"
   inkscape:current-layer="g1574" />
<style
   type="text/css"
   id="style816">
	.st0{fill:none;stroke:#D80B8C;stroke-width:48;stroke-linecap:round;stroke-miterlimit:10;}
	.st1{fill:#221F72;}
</style>



<g
   id="g1574"
   transform="translate(-29.960062,1.3578665)"
   inkscape:export-filename="./Tailored.png"
   inkscape:export-xdpi="80.309998"
   inkscape:export-ydpi="80.309998"><g
     id="g980"
     transform="matrix(0.99933159,0,0,0.99933159,1.5255409,2.1490085)"
     inkscape:export-filename="./Tailored.png"
     inkscape:export-xdpi="80.269997"
     inkscape:export-ydpi="80.269997"><path
       class="st0"
       d="m 540.96611,129.7445 c -9.9452,0 -257.36084,52.56036 -257.47133,228.09199 -0.11052,167.48778 258.57635,207.156 283.99198,207.156"
       id="path818-6"
       style="fill:none;stroke:#ffffff;stroke-width:64.811;stroke-linecap:round;stroke-miterlimit:10;stroke-dasharray:none"
       inkscape:export-filename="./Tailored.png"
       inkscape:export-xdpi="80.212578"
       inkscape:export-ydpi="80.212578" /><path
       class="st0"
       d="m 811.69768,938.5344 c 0,0 156.91391,-29.7512 162.43896,-168.47956 C 979.77231,626.80872 698.98497,588.35258 698.98497,588.35258"
       id="path820-3"
       style="fill:none;stroke:#ffffff;stroke-width:64.811;stroke-linecap:round;stroke-miterlimit:10;stroke-dasharray:none" /><path
       class="st0"
       d="m 540.96611,129.7445 c -9.9452,0 -257.36084,52.56036 -257.47133,228.09199 -0.11052,167.48778 258.57635,207.156 283.99198,207.156"
       id="path818" /><path
       class="st0"
       d="m 811.69766,938.5344 c 0,0 156.91391,-29.7512 162.43895,-168.47956 C 979.77233,626.80872 698.98497,588.35258 698.98497,588.35258"
       id="path820" /><path
       class="st1"
       d="M 731.47278,95.475686 660.75101,1159.9058 c -1.105,17.0782 -15.35988,30.4108 -32.59826,30.4108 -17.12793,0 -31.38275,-13.4427 -32.48777,-30.5218 L 530.57889,93.161715 c -0.11056,-1.542651 -0.11056,-3.195518 0.11056,-4.738158 0.22101,-2.203797 2.21001,-22.258226 14.80732,-42.202512 17.45941,-27.547334 46.85313,-42.7534578 82.76648,-42.7534578 45.19555,0 70.94274,23.0295788 84.64506,42.4228918 13.92331,19.613713 17.79092,39.447772 18.12244,41.651598 0.44203,2.644543 0.66304,5.289018 0.44203,7.933609 z M 631.13633,62.529075 c -29.83577,0 -54.03587,24.131441 -54.03587,53.882605 0,29.75115 24.2001,53.88258 54.03587,53.88258 29.83571,0 54.03578,-24.13143 54.03578,-53.88258 0,-29.751164 -24.20007,-53.882605 -54.03578,-53.882605 z"
       id="path822"
       style="stroke:#ffffff;stroke-width:9.97095;stroke-dasharray:none" /><path
       class="st0"
       d="m 797.33236,398.82693 c 0,0 49.72617,-21.26656 70.72163,-69.63963 30.38835,-70.0804 10.93977,-187.32194 -225.42544,-210.46165"
       id="path824-5"
       style="fill:none;stroke:#ffffff;stroke-width:64.811;stroke-linecap:round;stroke-miterlimit:10;stroke-dasharray:none" /><path
       class="st0"
       d="m 797.3015,398.82693 c 0,0 49.72616,-21.26656 70.72173,-69.63963 30.38827,-70.0804 10.93975,-187.32194 -225.42541,-210.46165"
       id="path824" /></g></g>
</svg>
