<?xml version="1.0" encoding="UTF-8" standalone="no"?>
<!-- Generator: Adobe Illustrator 27.9.0, SVG Export Plug-In . SVG Version: 6.00 Build 0)  -->

<svg
   version="1.1"
   id="Layer_1"
   x="0px"
   y="0px"
   viewBox="0 0 1200 1200"
   style="enable-background:new 0 0 1200 1200;"
   xml:space="preserve"
   sodipodi:docname="Tailored.svg"
   inkscape:version="1.2.2 (b0a8486, 2022-12-01)"
   inkscape:export-filename="Tailored.png"
   inkscape:export-xdpi="80"
   inkscape:export-ydpi="80"
   xmlns:inkscape="http://www.inkscape.org/namespaces/inkscape"
   xmlns:sodipodi="http://sodipodi.sourceforge.net/DTD/sodipodi-0.dtd"
   xmlns="http://www.w3.org/2000/svg"
   xmlns:svg="http://www.w3.org/2000/svg"><defs
   id="defs829" /><sodipodi:namedview
   id="namedview827"
   pagecolor="#000000"
   bordercolor="#666666"
   borderopacity="1.0"
   inkscape:showpageshadow="2"
   inkscape:pageopacity="0"
   inkscape:pagecheckerboard="0"
   inkscape:deskcolor="#d1d1d1"
   showgrid="false"
   inkscape:zoom="0.57765541"
   inkscape:cx="540.11439"
   inkscape:cy="630.99902"
   inkscape:window-width="1920"
   inkscape:window-height="1027"
   inkscape:window-x="0"
   inkscape:window-y="25"
   inkscape:window-maximized="1"
   inkscape:current-layer="g1574" />
<style
   type="text/css"
   id="style816">
	.st0{fill:none;stroke:#D80B8C;stroke-width:48;stroke-linecap:round;stroke-miterlimit:10;}
	.st1{fill:#221F72;}
</style>



<g
   id="g1574"
   transform="translate(-29.960062,1.3578665)"
   inkscape:export-filename="./Tailored.png"
   inkscape:export-xdpi="80.309998"
   inkscape:export-ydpi="80.309998"><path
     class="st0"
     d="m 541.81383,130.12837 c -9.97428,0 -258.11336,52.71408 -258.2242,228.75905 -0.11087,167.97757 259.33247,207.7618 284.82243,207.7618"
     id="path818-6"
     style="fill:none;stroke:#ffffff;stroke-width:60;stroke-linecap:round;stroke-miterlimit:10;stroke-dasharray:none"
     inkscape:export-filename="./Tailored.png"
     inkscape:export-xdpi="80.212578"
     inkscape:export-ydpi="80.212578" /><path
     class="st0"
     d="m 813.33716,941.28355 c 0,0 157.3728,-29.83824 162.91401,-168.97227 C 981.90332,628.64624 700.29483,590.07765 700.29483,590.07765"
     id="path820-3"
     style="fill:none;stroke:#ffffff;stroke-width:60;stroke-linecap:round;stroke-miterlimit:10;stroke-dasharray:none" /><path
     class="st0"
     d="m 541.81383,130.12837 c -9.97428,0 -258.11336,52.71408 -258.2242,228.75905 -0.11087,167.97757 259.33247,207.7618 284.82243,207.7618"
     id="path818" /><path
     class="st0"
     d="m 813.3368,941.28355 c 0,0 157.37275,-29.83824 162.91398,-168.97227 C 981.90293,628.64624 700.29444,590.07765 700.29444,590.07765"
     id="path820" /><path
     class="st1"
     d="M 732.87764,95.75934 661.94905,1163.3023 c -1.10825,17.1282 -15.40481,30.4998 -32.6936,30.4998 -17.178,0 -31.47453,-13.4819 -32.58278,-30.6111 L 531.39624,93.438601 c -0.11087,-1.547164 -0.11087,-3.204863 0.11088,-4.752017 0.22165,-2.210238 2.21649,-22.323316 14.85064,-42.325928 17.51047,-27.627893 46.99015,-42.878489 83.00852,-42.878489 45.32774,0 71.15021,23.096928 84.89259,42.546956 13.96404,19.671073 17.84297,39.563137 18.17545,41.773408 0.44332,2.652278 0.66497,5.304487 0.44332,7.956809 z M 632.24776,62.716379 c -29.92303,0 -54.1939,24.202015 -54.1939,54.040181 0,29.83816 24.27087,54.04015 54.1939,54.04015 29.92296,0 54.19382,-24.20199 54.19382,-54.04015 0,-29.838166 -24.27086,-54.040181 -54.19382,-54.040181 z"
     id="path822"
     style="stroke:#ffffff;stroke-width:6.5;stroke-dasharray:none" /><path
     class="st0"
     d="m 798.92982,399.99774 c 0,0 49.8716,-21.32877 70.92848,-69.84331 C 900.33551,259.86908 880.83004,142.2847 643.77359,119.0773"
     id="path824-5"
     style="fill:none;stroke:#ffffff;stroke-width:60;stroke-linecap:round;stroke-miterlimit:10;stroke-dasharray:none" /><path
     class="st0"
     d="m 798.91287,399.99774 c 0,0 49.87161,-21.32877 70.92855,-69.84331 30.4771,-70.28535 10.97176,-187.86973 -226.08465,-211.07713"
     id="path824" /></g>
</svg>
